<svg viewBox="0 0 270 36.9905" x="0" y="0" fill="none" xmlns="http://www.w3.org/2000/svg"><defs><clipPath id="clip14_25_22084" xmlns="http://www.w3.org/2000/svg">
<rect width="21" height="21" fill="white" transform="translate(156.938, 8.054199999999923)"/>
</clipPath></defs><g id="Group 1261156881" xmlns="http://www.w3.org/2000/svg">
<g id="Group 1171275108">
<path id="Rectangle 24015" d="M0,18.4952c0,-10.214 8.281,-18.495 18.495,-18.495h90.01c10.214,0 18.495,8.281 18.495,18.495c0,10.215 -8.281,18.495 -18.495,18.495h-90.01c-10.214,0 -18.495,-8.28 -18.495,-18.495z" fill="#1F0D19"/>
<path id="Vector_2" d="M33.115,18.5462c-0.022,-2.649 2.038,-3.937 2.132,-3.997c-1.167,-1.81 -2.976,-2.058 -3.611,-2.077c-1.52,-0.171 -2.992,0.967 -3.766,0.967c-0.773,0 -1.98,-0.951 -3.265,-0.923c-1.653,0.028 -3.198,1.045 -4.047,2.626c-1.75,3.223 -0.446,7.96 1.232,10.565c0.838,1.277 1.819,2.701 3.101,2.651c1.255,-0.054 1.724,-0.851 3.238,-0.851c1.515,0 1.94,0.851 3.249,0.819c1.346,-0.022 2.195,-1.281 3.004,-2.569c0.969,-1.462 1.358,-2.903 1.374,-2.976c-0.032,-0.012 -2.615,-1.062 -2.641,-4.235zM30.644,10.7582c0.674,-0.898 1.136,-2.121 1.009,-3.36c-0.977,0.046 -2.198,0.72 -2.903,1.598c-0.622,0.775 -1.178,2.043 -1.035,3.236c1.098,0.087 2.224,-0.589 2.929,-1.473z" fill="#F9F9F9"/>
<path id="Vector_3" d="M52.191,27.7972h-1.826l-1.001,-3.048h-3.477l-0.953,3.048h-1.778l3.446,-10.375h2.127zM49.063,23.4712l-0.905,-2.709c-0.096,-0.276 -0.275,-0.928 -0.539,-1.954h-0.033c-0.106,0.442 -0.275,1.093 -0.508,1.954l-0.89,2.709zM61.036,23.9642c0,1.272 -0.356,2.277 -1.07,3.016c-0.638,0.657 -1.431,0.985 -2.378,0.985c-1.022,0 -1.757,-0.354 -2.203,-1.061v3.925h-1.714v-8.057c0,-0.799 -0.022,-1.618 -0.064,-2.458h1.508l0.096,1.186h0.033c0.572,-0.893 1.44,-1.34 2.603,-1.34c0.91,0 1.671,0.348 2.278,1.046c0.608,0.7 0.913,1.618 0.913,2.758zM59.29,24.0242c0,-0.728 -0.17,-1.328 -0.509,-1.801c-0.37,-0.492 -0.869,-0.738 -1.493,-0.738c-0.423,0 -0.806,0.137 -1.151,0.408c-0.344,0.273 -0.569,0.628 -0.675,1.07c-0.048,0.166 -0.073,0.335 -0.08,0.506v1.248c0,0.543 0.172,1.002 0.516,1.378c0.345,0.375 0.792,0.562 1.342,0.562c0.645,0 1.148,-0.242 1.507,-0.724c0.361,-0.482 0.541,-1.119 0.541,-1.909zM69.913,23.9642c0,1.272 -0.357,2.277 -1.07,3.016c-0.639,0.657 -1.432,0.985 -2.38,0.985c-1.022,0 -1.757,-0.354 -2.204,-1.061v3.925h-1.713v-8.057c0,-0.799 -0.022,-1.618 -0.064,-2.458h1.508l0.096,1.186h0.032c0.571,-0.893 1.439,-1.34 2.604,-1.34c0.91,0 1.669,0.348 2.279,1.046c0.606,0.7 0.913,1.618 0.913,2.758zM68.165,24.0242c0,-0.728 -0.17,-1.328 -0.509,-1.801c-0.37,-0.492 -0.866,-0.738 -1.491,-0.738c-0.423,0 -0.807,0.137 -1.153,0.408c-0.344,0.273 -0.568,0.628 -0.674,1.07c-0.053,0.206 -0.08,0.373 -0.08,0.506v1.248c0,0.543 0.174,1.002 0.515,1.378c0.345,0.374 0.792,0.562 1.343,0.562c0.647,0 1.148,-0.242 1.508,-0.724c0.36,-0.482 0.541,-1.119 0.541,-1.909zM79.836,24.8852c0,0.884 -0.319,1.602 -0.952,2.156c-0.697,0.604 -1.669,0.908 -2.916,0.908c-1.151,0 -2.074,-0.216 -2.771,-0.647l0.396,-1.386c0.752,0.432 1.578,0.647 2.477,0.647c0.647,0 1.149,-0.142 1.508,-0.423c0.359,-0.283 0.541,-0.66 0.541,-1.131c0,-0.422 -0.15,-0.774 -0.446,-1.062c-0.297,-0.287 -0.788,-0.555 -1.477,-0.8c-1.874,-0.677 -2.811,-1.668 -2.811,-2.972c0,-0.85 0.331,-1.548 0.993,-2.093c0.662,-0.544 1.538,-0.816 2.628,-0.816c0.973,0 1.786,0.164 2.43,0.493l-0.43,1.354c-0.606,-0.318 -1.291,-0.477 -2.056,-0.477c-0.605,0 -1.079,0.144 -1.418,0.431c-0.286,0.256 -0.43,0.569 -0.43,0.94c0,0.409 0.165,0.75 0.494,1.017c0.284,0.245 0.804,0.512 1.555,0.799c0.922,0.36 1.599,0.78 2.032,1.261c0.437,0.481 0.654,1.083 0.654,1.799zM85.519,21.5612h-1.891v3.632c0,0.924 0.334,1.385 1.001,1.385c0.307,0 0.56,-0.025 0.762,-0.078l0.048,1.262c-0.338,0.123 -0.783,0.184 -1.333,0.184c-0.677,0 -1.207,-0.199 -1.588,-0.6c-0.381,-0.401 -0.572,-1.072 -0.572,-2.017v-3.772h-1.126v-1.247h1.126v-1.371l1.684,-0.493v1.862h1.89v1.251zM94.029,23.9932c0,1.15 -0.339,2.094 -1.017,2.832c-0.708,0.76 -1.652,1.139 -2.826,1.139c-1.174,0 -2.035,-0.365 -2.708,-1.092c-0.673,-0.728 -1.009,-1.647 -1.009,-2.754c0,-1.108 0.347,-2.11 1.04,-2.847c0.695,-0.739 1.629,-1.109 2.803,-1.109c1.174,0 2.042,0.365 2.73,1.093c0.657,0.706 0.985,1.619 0.985,2.738zM92.251,24.0312c0,-0.685 -0.153,-1.273 -0.46,-1.765c-0.359,-0.594 -0.874,-0.891 -1.54,-0.891c-0.666,0 -1.214,0.297 -1.572,0.891c-0.307,0.492 -0.459,1.09 -0.459,1.796c0,0.706 0.153,1.276 0.459,1.766c0.371,0.595 0.889,0.892 1.558,0.892c0.67,0 1.169,-0.304 1.541,-0.906c0.314,-0.504 0.473,-1.096 0.473,-1.782zM99.603,21.7762c-0.179,-0.032 -0.359,-0.046 -0.541,-0.046c-0.603,0 -1.07,0.219 -1.398,0.662c-0.285,0.39 -0.428,0.883 -0.428,1.478v3.925h-1.714v-5.125c0.001,-0.785 -0.015,-1.57 -0.05,-2.355h1.493l0.062,1.432h0.047c0.182,-0.492 0.467,-0.889 0.857,-1.186c0.358,-0.259 0.792,-0.4 1.24,-0.401c0.158,0 0.301,0.01 0.428,0.03v1.586h0.002zM107.271,23.7012c0.004,0.252 -0.016,0.505 -0.062,0.753h-5.143c0.019,0.739 0.268,1.306 0.746,1.695c0.433,0.347 0.993,0.522 1.682,0.522c0.762,0 1.457,-0.117 2.082,-0.354l0.268,1.153c-0.731,0.309 -1.592,0.463 -2.587,0.463c-1.196,0 -2.136,-0.342 -2.819,-1.023c-0.682,-0.682 -1.024,-1.599 -1.024,-2.746c0,-1.148 0.317,-2.067 0.953,-2.817c0.666,-0.799 1.567,-1.199 2.699,-1.199c1.132,0 1.954,0.4 2.526,1.199c0.453,0.634 0.681,1.42 0.681,2.352zM105.636,23.2692c0.012,-0.493 -0.1,-0.917 -0.333,-1.278c-0.297,-0.462 -0.754,-0.694 -1.366,-0.694c-0.56,0 -1.017,0.225 -1.364,0.677c-0.286,0.359 -0.456,0.792 -0.507,1.293h3.57v0.001z" fill="#F9F9F9"/>
<path id="Vector_4" d="M45.609,13.5302c-0.472,0 -0.879,-0.02 -1.218,-0.054v-4.541c0.474,-0.065 0.954,-0.097 1.434,-0.096c1.944,0 2.84,0.848 2.84,2.232c0,1.596 -1.058,2.459 -3.056,2.459zM45.894,9.4212c-0.263,0 -0.486,0.014 -0.672,0.047v3.452c0.1,0.014 0.292,0.02 0.563,0.02c1.274,0 1.999,-0.644 1.999,-1.848c0,-1.075 -0.656,-1.671 -1.89,-1.671zM51.455,13.5652c-1.095,0 -1.806,-0.726 -1.806,-1.712c0,-0.985 0.725,-1.76 1.868,-1.76c1.079,0 1.806,0.692 1.806,1.706c0,1.014 -0.748,1.766 -1.868,1.766zM51.487,10.6332c-0.602,0 -0.988,0.5 -0.988,1.199c0,0.699 0.394,1.185 0.98,1.185c0.586,0 0.98,-0.534 0.98,-1.198c0,-0.664 -0.386,-1.184 -0.972,-1.184zM59.572,10.1612l-1.173,3.328h-0.764l-0.486,-1.445c-0.12,-0.354 -0.221,-0.712 -0.301,-1.075h-0.017c-0.061,0.363 -0.177,0.726 -0.3,1.075l-0.516,1.445h-0.772l-1.104,-3.328h0.857l0.425,1.582c0.101,0.377 0.185,0.732 0.255,1.068h0.016c0.061,-0.279 0.161,-0.629 0.308,-1.061l0.532,-1.589h0.679l0.509,1.554c0.124,0.378 0.224,0.747 0.302,1.096h0.023c0.053,-0.342 0.139,-0.705 0.255,-1.096l0.455,-1.554h0.818zM63.889,13.4892h-0.834v-1.912c0,-0.588 -0.255,-0.883 -0.756,-0.883c-0.501,0 -0.834,0.377 -0.834,0.815v1.98h-0.834v-2.377c0,-0.294 -0.008,-0.609 -0.031,-0.952h0.734l0.039,0.514h0.022c0.224,-0.356 0.679,-0.582 1.19,-0.582c0.787,0 1.304,0.534 1.304,1.403v1.992zM66.187,13.4892h-0.834v-4.855h0.834zM69.225,13.5642c-1.095,0 -1.806,-0.726 -1.806,-1.712c0,-0.985 0.726,-1.76 1.868,-1.76c1.081,0 1.806,0.691 1.806,1.705c0,1.041 -0.748,1.767 -1.868,1.767zM69.256,10.6322c-0.602,0 -0.988,0.5 -0.988,1.199c0,0.698 0.394,1.185 0.979,1.185c0.584,0 0.98,-0.534 0.98,-1.198c0,-0.678 -0.384,-1.185 -0.971,-1.185zM74.378,13.4892l-0.06,-0.384h-0.023c-0.255,0.309 -0.626,0.459 -1.097,0.459c-0.672,0 -1.149,-0.418 -1.149,-0.98c0,-0.821 0.802,-1.246 2.192,-1.246v-0.062c0,-0.438 -0.261,-0.658 -0.779,-0.658c-0.37,0 -0.694,0.082 -0.98,0.248l-0.169,-0.487c0.347,-0.192 0.779,-0.288 1.287,-0.288c0.98,0 1.475,0.458 1.475,1.377v1.226c0,0.335 0.016,0.596 0.054,0.795zM74.264,11.8312c-0.925,0 -1.39,0.199 -1.39,0.671c0,0.349 0.24,0.52 0.571,0.52c0.423,0 0.818,-0.287 0.818,-0.677v-0.514zM79.123,13.4892l-0.039,-0.535h-0.023c-0.24,0.404 -0.642,0.61 -1.204,0.61c-0.904,0 -1.574,-0.706 -1.574,-1.699c0,-0.992 0.695,-1.774 1.642,-1.774c0.502,0 0.857,0.15 1.058,0.452h0.016v-1.91h0.834v3.958c0,0.322 0.01,0.624 0.031,0.898zM78.999,11.5312c0,-0.465 -0.347,-0.863 -0.878,-0.863c-0.618,0 -0.996,0.487 -0.996,1.171c0,0.684 0.392,1.131 0.979,1.131c0.524,0 0.894,-0.405 0.894,-0.883v-0.555zM85.123,13.5652c-1.096,0 -1.805,-0.726 -1.805,-1.712c0,-0.985 0.725,-1.76 1.868,-1.76c1.08,0 1.806,0.692 1.806,1.706c0,1.04 -0.747,1.766 -1.868,1.766zM85.153,10.6332c-0.6,0 -0.986,0.5 -0.986,1.199c0,0.699 0.394,1.185 0.978,1.185c0.585,0 0.98,-0.534 0.98,-1.198c0.002,-0.677 -0.383,-1.184 -0.972,-1.184zM91.472,13.4902h-0.834v-1.912c0,-0.587 -0.254,-0.883 -0.756,-0.883c-0.501,0 -0.832,0.378 -0.832,0.816v1.979h-0.834v-2.377c0,-0.294 -0.008,-0.609 -0.031,-0.952h0.733l0.039,0.514h0.023c0.224,-0.356 0.678,-0.582 1.188,-0.582c0.787,0 1.304,0.535 1.304,1.403zM97.079,10.7172h-0.917v1.616c0,0.412 0.161,0.617 0.486,0.617c0.147,0 0.271,-0.015 0.37,-0.035l0.023,0.562c-0.161,0.055 -0.379,0.082 -0.647,0.082c-0.657,0 -1.05,-0.321 -1.05,-1.164v-1.678h-0.547v-0.555h0.547v-0.609l0.818,-0.219v0.828h0.917v0.556zM101.49,13.4902h-0.832v-1.897c0,-0.595 -0.254,-0.898 -0.756,-0.898c-0.432,0 -0.834,0.261 -0.834,0.788v2.007h-0.833v-4.855h0.833v2h0.016c0.263,-0.363 0.642,-0.542 1.127,-0.542c0.794,0 1.279,0.548 1.279,1.418zM106.01,12.0032h-2.5c0.016,0.63 0.485,0.986 1.181,0.986c0.37,0 0.71,-0.055 1.011,-0.157l0.13,0.514c-0.355,0.137 -0.772,0.206 -1.258,0.206c-1.173,0 -1.867,-0.658 -1.867,-1.677c0,-1.019 0.71,-1.788 1.773,-1.788c0.959,0 1.56,0.63 1.56,1.582c0.005,0.112 -0.004,0.225 -0.029,0.336zM105.246,11.4762c0,-0.514 -0.292,-0.876 -0.825,-0.876c-0.478,0 -0.856,0.37 -0.911,0.876z" fill="#F9F9F9"/>
</g>
<g id="Group 1171275109">
<rect id="Rectangle 24017" x="143.25" y="0.2501999999999498" width="126.5" height="36.4903" rx="18.2451" fill="#1F0D19" stroke="white" stroke-width="0.5"/>
<path id="Vector_5" d="M189.223,10.0232c0,0.637 -0.166,1.194 -0.578,1.591c-0.497,0.478 -1.074,0.715 -1.818,0.715c-0.745,0 -1.322,-0.239 -1.818,-0.715c-0.497,-0.478 -0.743,-1.034 -0.743,-1.75c0,-0.717 0.248,-1.272 0.743,-1.75c0.496,-0.478 1.073,-0.716 1.818,-0.716c0.33,0 0.661,0.08 0.991,0.239c0.33,0.16 0.579,0.318 0.743,0.557l-0.413,0.398c-0.33,-0.398 -0.743,-0.557 -1.321,-0.557c-0.497,0 -0.992,0.159 -1.322,0.557c-0.413,0.318 -0.579,0.795 -0.579,1.351c0,0.556 0.166,1.033 0.579,1.351c0.413,0.318 0.827,0.557 1.322,0.557c0.578,0 0.991,-0.159 1.404,-0.557c0.248,-0.238 0.412,-0.557 0.412,-0.954h-1.818v-0.636h2.397v0.318zM193.024,8.0362h-2.231v1.511h2.065v0.557h-2.065v1.511h2.231v0.636h-2.892v-4.772h2.892zM195.751,12.2512h-0.661v-4.215h-1.404v-0.557h3.47v0.557h-1.404v4.215zM199.552,12.2512v-4.772h0.66v4.772zM203.022,12.2512h-0.661v-4.215h-1.404v-0.557h3.388v0.557h-1.404v4.215h0.082zM210.871,11.6152c-0.496,0.478 -1.073,0.715 -1.818,0.715c-0.744,0 -1.322,-0.238 -1.818,-0.715c-0.496,-0.478 -0.743,-1.033 -0.743,-1.75c0,-0.717 0.248,-1.272 0.743,-1.75c0.496,-0.478 1.074,-0.715 1.818,-0.715c0.745,0 1.322,0.239 1.818,0.715c0.496,0.478 0.743,1.033 0.743,1.75c0,0.717 -0.248,1.272 -0.743,1.75zM207.731,11.2182c0.331,0.318 0.827,0.557 1.322,0.557c0.495,0 0.991,-0.16 1.322,-0.557c0.33,-0.318 0.578,-0.796 0.578,-1.352c0,-0.555 -0.165,-1.033 -0.578,-1.351c-0.331,-0.318 -0.827,-0.557 -1.322,-0.557c-0.495,0 -0.991,0.16 -1.322,0.557c-0.33,0.318 -0.578,0.796 -0.578,1.351c0,0.556 0.166,1.034 0.578,1.352zM212.523,12.2512v-4.772h0.743l2.397,3.738v-3.738h0.661v4.772h-0.661l-2.561,-3.897v3.897z" fill="#F9F9F9"/>
<path id="Vector_6" d="M206.697,19.8022c-1.993,0 -3.572,1.445 -3.572,3.451c0,2.006 1.579,3.451 3.572,3.451c1.993,0 3.572,-1.445 3.572,-3.451c0,-2.006 -1.579,-3.451 -3.572,-3.451zM206.697,25.2602c-1.079,0 -1.993,-0.883 -1.993,-2.087c0,-1.204 0.914,-2.087 1.993,-2.087c1.079,0 1.993,0.803 1.993,2.087c0,1.204 -0.914,2.087 -1.993,2.087zM198.971,19.8022c-1.993,0 -3.572,1.445 -3.572,3.451c0,2.006 1.579,3.451 3.572,3.451c1.994,0 3.572,-1.445 3.572,-3.451c0,-2.006 -1.578,-3.451 -3.572,-3.451zM198.971,25.2602c-1.079,0 -1.993,-0.883 -1.993,-2.087c0,-1.204 0.914,-2.087 1.993,-2.087c1.08,0 1.994,0.803 1.994,2.087c0,1.204 -0.914,2.087 -1.994,2.087zM189.75,20.8462v1.445h3.572c-0.083,0.804 -0.415,1.446 -0.832,1.846c-0.499,0.483 -1.329,1.043 -2.742,1.043c-2.243,0 -3.904,-1.685 -3.904,-3.852c0,-2.167 1.744,-3.852 3.904,-3.852c1.164,0 2.077,0.483 2.742,1.043l1.08,-1.043c-0.914,-0.803 -2.076,-1.445 -3.739,-1.445c-2.99,0 -5.565,2.408 -5.565,5.297c0,2.889 2.575,5.297 5.565,5.297c1.661,0 2.825,-0.482 3.822,-1.525c0.996,-0.963 1.329,-2.328 1.329,-3.371c0,-0.321 0,-0.642 -0.083,-0.883h-5.151zM227.466,21.9702c-0.332,-0.803 -1.164,-2.167 -2.99,-2.167c-1.827,0 -3.323,1.364 -3.323,3.451c0,1.926 1.496,3.451 3.489,3.451c1.579,0 2.576,-0.963 2.908,-1.525l-1.164,-0.803c-0.415,0.562 -0.914,0.963 -1.744,0.963c-0.83,0 -1.329,-0.321 -1.744,-1.043l4.736,-1.926l-0.167,-0.401zM222.648,23.0952c0,-1.284 1.079,-2.006 1.828,-2.006c0.581,0 1.163,0.321 1.329,0.722zM218.743,26.3862h1.579v-10.032h-1.579zM216.251,20.5272c-0.415,-0.401 -1.08,-0.804 -1.911,-0.804c-1.744,0 -3.407,1.525 -3.407,3.451c0,1.926 1.579,3.372 3.407,3.372c0.831,0 1.496,-0.401 1.828,-0.804h0.083v0.483c0,1.284 -0.747,2.005 -1.911,2.005c-0.914,0 -1.578,-0.642 -1.744,-1.204l-1.329,0.562c0.415,0.884 1.412,2.006 3.157,2.006c1.745,0 3.323,-1.043 3.323,-3.531v-6.1h-1.496v0.562zM214.423,25.2622c-1.08,0 -1.994,-0.883 -1.994,-2.088c0,-1.204 0.914,-2.087 1.994,-2.087c1.079,0 1.91,0.883 1.91,2.087c0,1.205 -0.831,2.088 -1.91,2.088zM234.692,16.3522h-3.738v10.032h1.578v-3.772h2.16c1.744,0 3.407,-1.204 3.407,-3.13c0,-1.926 -1.661,-3.13 -3.407,-3.13zM234.775,21.1692h-2.243v-3.452h2.243c1.164,0 1.828,0.963 1.828,1.685c-0.083,0.883 -0.747,1.767 -1.828,1.767zM244.329,19.7232c-1.164,0 -2.326,0.483 -2.742,1.525l1.412,0.563c0.332,-0.563 0.831,-0.722 1.411,-0.722c0.832,0 1.579,0.482 1.661,1.284v0.08c-0.249,-0.162 -0.914,-0.401 -1.578,-0.401c-1.496,0 -2.99,0.803 -2.99,2.247c0,1.363 1.246,2.247 2.575,2.247c1.079,0 1.578,-0.483 1.993,-0.963h0.083v0.803h1.496v-3.852c-0.167,-1.766 -1.579,-2.809 -3.322,-2.809zM244.162,25.2622c-0.499,0 -1.246,-0.242 -1.246,-0.883c0,-0.804 0.914,-1.043 1.661,-1.043c0.665,0 0.997,0.161 1.412,0.321c-0.167,0.963 -0.997,1.605 -1.828,1.605zM252.885,19.9642l-1.744,4.335h-0.083l-1.828,-4.335h-1.661l2.742,6.101l-1.579,3.371h1.579l4.236,-9.472h-1.661zM238.927,26.3862h1.579v-10.032h-1.579z" fill="#F9F9F9"/>
<g id="Capa_1" clip-path="url(#clip14_25_22084)">
<g id="Group_3">
<path id="Vector_7" d="M160.961,8.3222c-0.541,-0.326 -1.185,-0.355 -1.748,-0.084l9.429,9.449l3.082,-3.097zM158.347,9.1132c-0.119,0.252 -0.183,0.532 -0.183,0.82v17.284c0,0.289 0.064,0.565 0.185,0.812l9.424,-9.47zM168.643,19.4302l-9.413,9.458c0.249,0.116 0.515,0.166 0.781,0.166c0.327,0 0.654,-0.078 0.95,-0.256l10.765,-6.277zM175.824,16.9772c-0.004,-0.003 -0.008,-0.005 -0.012,-0.007l-2.988,-1.74l-3.313,3.328l3.315,3.322c0,0 2.994,-1.746 2.998,-1.748c0.555,-0.337 0.887,-0.927 0.887,-1.578c0,-0.65 -0.332,-1.24 -0.887,-1.577z" fill="#F9F9F9"/>
</g>
</g>
</g>
</g></svg>