<svg width="37" height="37" viewBox="0 0 37 37" fill="none" xmlns="http://www.w3.org/2000/svg">
<path opacity="0.25" fill-rule="evenodd" clip-rule="evenodd" d="M18.5 36C28.165 36 36 28.165 36 18.5C36 8.83502 28.165 1 18.5 1C8.83502 1 1 8.83502 1 18.5C1 28.165 8.83502 36 18.5 36Z" stroke="white" stroke-width="1.5"/>
<path d="M21.4758 19.8858L21.8904 17.1557H19.2968V15.3849C19.2968 14.6378 19.6584 13.9091 20.8201 13.9091H22V11.5849C22 11.5849 20.9297 11.4004 19.9068 11.4004C17.7699 11.4004 16.3744 12.7083 16.3744 15.075V17.1557H14V19.8858H16.3744V26.486C16.8511 26.5617 17.3388 26.6004 17.8356 26.6004C18.3324 26.6004 18.8201 26.5617 19.2968 26.486V19.8858H21.4758Z" fill="white"/>
</svg>
