<svg width="169" height="26" viewBox="0 0 169 26" fill="none" xmlns="http://www.w3.org/2000/svg">
<g clip-path="url(#clip0_98_107419)">
<path d="M34.0124 22.6894C32.3791 22.6894 30.9027 22.288 29.5831 21.4816C28.2601 20.6752 27.2201 19.5795 26.4631 18.1909C25.7061 16.8024 25.3242 15.2546 25.3242 13.5478C25.3242 11.841 25.7027 10.2644 26.4631 8.88664C27.2235 7.50889 28.2601 6.42044 29.5831 5.61404C30.9061 4.81126 32.3791 4.40625 34.0124 4.40625C35.2979 4.40625 36.4981 4.67023 37.6131 5.19095C38.7281 5.71529 39.6761 6.46383 40.4569 7.44019L37.9746 10.1089C37.4904 9.50138 36.9107 9.04213 36.2322 8.73838C35.5536 8.43462 34.8137 8.28274 34.009 8.28274C33.0679 8.28274 32.2325 8.50695 31.5096 8.95896C30.7867 9.41098 30.2241 10.0257 29.8217 10.8068C29.4194 11.5879 29.2182 12.4992 29.2182 13.5478C29.2182 14.5965 29.4194 15.4788 29.8217 16.2708C30.2241 17.0627 30.7867 17.6847 31.5096 18.1367C32.2325 18.5887 33.0679 18.8129 34.009 18.8129C34.8137 18.8129 35.5536 18.661 36.2322 18.3573C36.9107 18.0535 37.4904 17.5943 37.9746 16.9868L40.4569 19.6555C39.6761 20.6318 38.7281 21.3804 37.6131 21.9047C36.4981 22.4291 35.2979 22.6894 34.0124 22.6894Z" fill="#F3F4F5"/>
<path d="M50.4217 22.6894C48.8122 22.6894 47.3528 22.2808 46.0435 21.4635C44.7341 20.6463 43.6941 19.5434 42.9235 18.1548C42.1529 16.7662 41.7676 15.2185 41.7676 13.5117C41.7676 11.8049 42.1529 10.2716 42.9235 8.90472C43.6941 7.54144 44.7341 6.44937 46.0435 5.63212C47.3528 4.81487 48.8122 4.40625 50.4217 4.40625C52.0311 4.40625 53.5246 4.80764 54.8339 5.61404C56.1433 6.41682 57.1833 7.50889 57.9539 8.88664C58.7245 10.2644 59.1098 11.8049 59.1098 13.5117C59.1098 15.2185 58.7245 16.7662 57.9539 18.1548C57.1833 19.5434 56.1433 20.6463 54.8339 21.4635C53.5246 22.2808 52.0515 22.6894 50.4217 22.6894ZM50.4217 18.8129C51.3628 18.8129 52.1982 18.5887 52.921 18.1367C53.6439 17.6847 54.2065 17.0591 54.6089 16.2527C55.0112 15.4499 55.2124 14.535 55.2124 13.5117C55.2124 12.4883 55.0044 11.5879 54.5918 10.8068C54.1793 10.0257 53.6132 9.41098 52.904 8.95896C52.1913 8.50695 51.3628 8.28274 50.4217 8.28274C49.4805 8.28274 48.6827 8.50695 47.9564 8.95896C47.2335 9.41098 46.6709 10.0257 46.2685 10.8068C45.8662 11.5879 45.665 12.4883 45.665 13.5117C45.665 14.535 45.8662 15.4499 46.2685 16.2527C46.6709 17.0555 47.2335 17.6847 47.9564 18.1367C48.6792 18.5887 49.501 18.8129 50.4217 18.8129Z" fill="#F3F4F5"/>
<path d="M69.0389 22.6956C67.6375 22.6956 66.3895 22.3665 65.2983 21.7084C64.2072 21.0502 63.3548 20.1426 62.7478 18.9854C62.1375 17.8283 61.834 16.4939 61.834 14.9824V4.78125H65.6257V14.7979C65.6257 15.6513 65.7587 16.3782 66.0212 16.9748C66.2838 17.5715 66.6759 18.0308 67.1942 18.3454C67.7125 18.6636 68.3262 18.8191 69.0389 18.8191C70.1437 18.8191 70.9859 18.4719 71.5724 17.7776C72.1589 17.0833 72.4521 16.0889 72.4521 14.7979V4.78125H76.2438V14.9824C76.2438 16.5192 75.9403 17.8644 75.33 19.0216C74.7196 20.1787 73.8774 21.0828 72.7965 21.7264C71.7156 22.3701 70.4642 22.6956 69.0389 22.6956Z" fill="#F3F4F5"/>
<path d="M83.862 4.78125H80.0703V22.3303H83.862V4.78125Z" fill="#F3F4F5"/>
<path d="M92.7227 4.77865H104.446V8.43456H92.7227V4.77865ZM96.6848 0.0234375H100.477V22.3314H96.6848V0.0234375Z" fill="#F3F4F5"/>
<path d="M119.969 22.6894C118.336 22.6894 116.86 22.288 115.54 21.4816C114.217 20.6752 113.177 19.5795 112.42 18.1909C111.663 16.8024 111.281 15.2546 111.281 13.5478C111.281 11.841 111.66 10.2644 112.42 8.88664C113.181 7.50889 114.217 6.42044 115.54 5.61404C116.863 4.81126 118.336 4.40625 119.969 4.40625C121.255 4.40625 122.455 4.67023 123.57 5.19095C124.685 5.71529 125.633 6.46383 126.414 7.44019L123.932 10.1089C123.447 9.50138 122.868 9.04213 122.189 8.73838C121.511 8.43462 120.771 8.28274 119.966 8.28274C119.025 8.28274 118.19 8.50695 117.467 8.95896C116.744 9.41098 116.181 10.0257 115.779 10.8068C115.376 11.5879 115.175 12.4992 115.175 13.5478C115.175 14.5965 115.376 15.4788 115.779 16.2708C116.181 17.0627 116.744 17.6847 117.467 18.1367C118.19 18.5887 119.025 18.8129 119.966 18.8129C120.771 18.8129 121.511 18.661 122.189 18.3573C122.868 18.0535 123.447 17.5943 123.932 16.9868L126.414 19.6555C125.633 20.6318 124.685 21.3804 123.57 21.9047C122.455 22.4291 121.255 22.6894 119.969 22.6894Z" fill="#F3F4F5"/>
<path d="M132.932 0.0234375H129.141V22.3314H132.932V0.0234375Z" fill="#F3F4F5"/>
<path d="M139.068 4.82392C138.424 4.82392 137.889 4.59249 137.466 4.12962C137.04 3.66676 136.828 3.09541 136.828 2.41196C136.828 1.72851 137.04 1.15716 137.466 0.694298C137.892 0.231433 138.424 0 139.068 0C139.713 0 140.275 0.231433 140.688 0.694298C141.101 1.15716 141.309 1.73213 141.309 2.41196C141.309 3.09179 141.101 3.66676 140.688 4.12962C140.275 4.59249 139.733 4.82392 139.068 4.82392ZM137.173 6.48734H140.964V22.326H137.173V6.48734Z" fill="#F3F4F5"/>
<path d="M83.8605 15.9985L83.8639 8.3793H89.9231L89.9402 4.78125H83.3047" fill="#F3F4F5"/>
<path d="M0 9.43792C0 7.75642 0.368259 6.23403 1.10478 4.87075C1.84129 3.50746 2.84718 2.43709 4.11904 1.656C5.3909 0.874918 6.80937 0.484375 8.37447 0.484375C9.93957 0.484375 11.3853 0.874918 12.647 1.656C13.9086 2.43709 14.9077 3.50746 15.6442 4.87075C16.3807 6.23403 16.7489 7.7528 16.7489 9.43792C16.7489 10.765 16.5103 12.0018 16.0295 13.1517C15.5487 14.3016 14.8633 15.278 13.97 16.0844L11.2387 13.8279C11.7979 13.3289 12.5003 12.4321 12.7799 11.7342C13.0595 11.0363 13.1993 10.2696 13.1993 9.44154C13.1993 8.4688 12.9913 7.61177 12.5788 6.86685C12.1662 6.12193 11.6001 5.53973 10.8875 5.12749C10.1714 4.71164 9.33604 4.50552 8.37447 4.50552C7.41291 4.50552 6.60479 4.71164 5.8785 5.12749C5.15221 5.53973 4.58277 6.12193 4.17019 6.86685C3.7576 7.61177 3.5496 8.47241 3.5496 9.44154C3.5496 10.2696 3.68941 11.0326 3.96901 11.7342C4.24861 12.4321 5.04651 13.4338 5.60571 13.9328L2.77899 16.088C1.88562 15.2816 1.19684 14.3052 0.719468 13.1553C0.238686 12.0054 0 10.7687 0 9.44154" fill="#F3F4F5"/>
<path d="M8.40786 14.3359L0.517578 20.9065V25.9943L8.39081 19.6733L16.2845 25.998V20.7907L8.40786 14.3359Z" fill="#F3F4F5"/>
<path d="M152.807 22.7956C151.164 22.7956 149.674 22.3906 148.34 21.5806C147.007 20.7705 145.96 19.664 145.196 18.2646C144.433 16.8651 144.051 15.303 144.051 13.5853C144.051 11.8676 144.433 10.2765 145.196 8.88794C145.96 7.49934 147.01 6.40004 148.34 5.59002C149.674 4.78001 151.16 4.375 152.807 4.375C154.103 4.375 155.313 4.63898 156.439 5.16693C157.56 5.69489 158.519 6.45066 159.306 7.43425L157.1 10.4356C156.612 9.8209 155.733 9.05066 155.051 8.74329C154.369 8.43592 153.619 8.28404 152.811 8.28404C151.859 8.28404 151.02 8.51186 150.291 8.96387C149.561 9.41951 148.992 10.0379 148.589 10.8262C148.183 11.6109 147.982 12.533 147.982 13.5889C147.982 14.6448 148.183 15.538 148.589 16.3336C148.995 17.1327 149.561 17.7583 150.291 18.2139C151.02 18.6696 151.859 18.8938 152.811 18.8938C153.622 18.8938 154.369 18.7419 155.051 18.4345C155.733 18.1272 156.715 17.2484 157.199 16.6337L159.306 19.74C158.519 20.7235 157.564 21.4793 156.439 22.0073C155.313 22.5352 154.103 22.7992 152.807 22.7992" fill="#F3F4F5"/>
<path d="M157.594 13.5549L164.021 22.2336H169L162.818 13.573L169 4.89062H163.909L157.594 13.5549Z" fill="#F3F4F5"/>
</g>
<defs>
<clipPath id="clip0_98_107419">
<rect width="169" height="26" fill="white"/>
</clipPath>
</defs>
</svg>
