<svg width="24" height="24" viewBox="0 0 24 24" fill="none" xmlns="http://www.w3.org/2000/svg">
<g clip-path="url(#clip0_33460_3148)">
<path d="M19.6121 23.9569H5.12946C2.72969 23.9569 0.784668 22.0119 0.784668 19.6121V5.12946C0.784668 2.72969 2.72969 0.784668 5.12946 0.784668H19.6121C22.0119 0.784668 23.9569 2.72969 23.9569 5.12946V19.6121C23.9569 22.0119 22.0119 23.9569 19.6121 23.9569Z" fill="#FFE6E2"/>
<path d="M9.59532 6.57739H8.38819C8.18833 6.57739 8.02612 6.7396 8.02612 6.93946C8.02612 7.13932 8.18833 7.30153 8.38819 7.30153H8.62933V8.02566C8.62933 8.22552 8.79153 8.38772 8.99139 8.38772C9.19125 8.38772 9.35346 8.22552 9.35346 8.02566V7.30153H9.59459C9.79446 7.30153 9.95666 7.13932 9.95666 6.93946C9.95666 6.7396 9.79518 6.57739 9.59532 6.57739Z" fill="#FD907E"/>
<path d="M12.974 6.57739H11.7669C11.567 6.57739 11.4048 6.7396 11.4048 6.93946C11.4048 7.13932 11.567 7.30153 11.7669 7.30153H12.0087V8.02566C12.0087 8.22552 12.1709 8.38772 12.3708 8.38772C12.5706 8.38772 12.7328 8.22552 12.7328 8.02566V7.30153H12.974C13.1738 7.30153 13.336 7.13932 13.336 6.93946C13.336 6.7396 13.1738 6.57739 12.974 6.57739Z" fill="#FD907E"/>
<path d="M16.3536 6.57739H15.1465C14.9466 6.57739 14.7844 6.7396 14.7844 6.93946C14.7844 7.13932 14.9466 7.30153 15.1465 7.30153H15.3876V8.02566C15.3876 8.22552 15.5498 8.38772 15.7497 8.38772C15.9496 8.38772 16.1118 8.22552 16.1118 8.02566V7.30153H16.3536C16.5535 7.30153 16.7157 7.13932 16.7157 6.93946C16.7157 6.7396 16.5535 6.57739 16.3536 6.57739Z" fill="#FD907E"/>
<path d="M17.3187 15.2675H7.4227C6.95636 15.2675 6.57764 14.8887 6.57764 14.4224V8.87046C6.57764 8.40484 6.95636 8.02612 7.4227 8.02612H17.3194C17.785 8.02612 18.1638 8.40484 18.1638 8.87119V14.4231C18.1638 14.8887 17.785 15.2675 17.3187 15.2675Z" fill="#FC573B"/>
<path d="M8.02612 17.8018C8.02612 18.0016 8.18833 18.1639 8.38819 18.1639H9.35346C9.55332 18.1639 9.71552 18.0016 9.71552 17.8018V15.9915H8.02612V17.8018Z" fill="#FD907E"/>
<path d="M15.0261 17.8018C15.0261 18.0016 15.1883 18.1639 15.3882 18.1639H16.3535C16.5533 18.1639 16.7155 18.0016 16.7155 17.8018V15.9915H15.0261V17.8018Z" fill="#FD907E"/>
<circle cx="17.5646" cy="7.97602" r="1.59809" fill="#34C759"/>
</g>
<defs>
<clipPath id="clip0_33460_3148">
<rect width="23.1722" height="23.1722" fill="white" transform="translate(0.784668 0.785156)"/>
</clipPath>
</defs>
</svg>
