<svg width="27" height="27" viewBox="0 0 27 27" fill="none" xmlns="http://www.w3.org/2000/svg">
<g clip-path="url(#clip0_33460_1724)">
<path d="M21.3737 26.0983H5.62575C3.01632 26.0983 0.901367 23.9834 0.901367 21.3739V5.626C0.901367 3.01656 3.01632 0.901611 5.62575 0.901611H21.3737C23.9831 0.901611 26.0981 3.01656 26.0981 5.626V21.3739C26.0981 23.9834 23.9831 26.0983 21.3737 26.0983Z" fill="#FFF9DD"/>
<path d="M18.224 12.9727H16.2555C15.9657 12.9727 15.7303 12.7372 15.7303 12.4475C15.7303 12.1577 15.9657 11.9231 16.2555 11.9231H18.224C18.5138 11.9231 18.7492 11.6876 18.7492 11.3979V9.29788C18.7492 9.00891 18.5138 8.77348 18.224 8.77348H8.77523C8.48547 8.77348 8.25004 9.00891 8.25004 9.29867V11.3987C8.25004 11.6876 8.48547 11.9231 8.77523 11.9231H9.69413C9.98389 11.9231 10.2193 12.1585 10.2193 12.4483C10.2193 12.738 9.98389 12.9735 9.69413 12.9735H8.77523C7.90674 12.9735 7.20044 12.2672 7.20044 11.3987V9.29867C7.20044 8.43017 7.90674 7.72388 8.77523 7.72388H18.224C19.0925 7.72388 19.7988 8.43017 19.7988 9.29867V11.3987C19.7988 12.2664 19.0925 12.9727 18.224 12.9727Z" fill="#FFE777"/>
<path d="M15.5998 19.2759C15.4832 19.2759 15.3667 19.2365 15.2714 19.161L14.2872 18.3736L13.3022 19.161C13.1108 19.3145 12.8384 19.3145 12.6463 19.161L11.6612 18.3736L10.677 19.161C10.5187 19.2869 10.303 19.3121 10.1219 19.224C9.93997 19.1365 9.82422 18.9523 9.82422 18.7507V11.9271C9.82422 10.7697 10.7659 9.82715 11.9242 9.82715H17.1738C17.4636 9.82715 17.699 10.0626 17.699 10.3523C17.699 10.6421 17.4636 10.8775 17.1738 10.8775C16.5951 10.8775 16.1242 11.3484 16.1242 11.9271V18.7515C16.1242 18.9531 16.0084 19.1373 15.8266 19.2247C15.7549 19.2594 15.6769 19.2759 15.5998 19.2759Z" fill="#FFD200"/>
<path d="M17.1743 10.8775H9.82549C9.53572 10.8775 9.30029 10.6421 9.30029 10.3523C9.30029 10.0626 9.53572 9.82715 9.82549 9.82715H17.1743C17.464 9.82715 17.6995 10.0626 17.6995 10.3523C17.6995 10.6421 17.464 10.8775 17.1743 10.8775Z" fill="#FFE777"/>
</g>
<defs>
<clipPath id="clip0_33460_1724">
<rect width="25.1967" height="25.1967" fill="white" transform="translate(0.901855 0.898438)"/>
</clipPath>
</defs>
</svg>
