<svg width="27" height="27" viewBox="0 0 27 27" fill="none" xmlns="http://www.w3.org/2000/svg">
<g clip-path="url(#clip0_33460_230)">
<path d="M21.3499 26.2084H5.15489C2.47141 26.2084 0.296387 24.0334 0.296387 21.3499V5.15489C0.296387 2.47141 2.47141 0.296387 5.15489 0.296387H21.3499C24.0334 0.296387 26.2084 2.47141 26.2084 5.15489V21.3499C26.2084 24.0334 24.0334 26.2084 21.3499 26.2084Z" fill="#F5E6FE"/>
<path d="M12.1731 19.7303C13.1505 19.7303 13.9683 19.0339 14.1561 18.1108H10.1892C10.3778 19.0339 11.1949 19.7303 12.1731 19.7303Z" fill="#D9A4FC"/>
<path d="M16.2623 14.5999C16.2485 14.5999 16.2348 14.6023 16.221 14.6023C13.8396 14.6023 11.9026 12.6645 11.9026 10.2839C11.9026 9.34858 12.2046 8.48387 12.7123 7.77613V7.31451C12.7123 7.0158 12.4709 6.77441 12.173 6.77441C11.8751 6.77441 11.6329 7.0158 11.6329 7.31451V7.89751C9.80446 8.16064 8.39392 9.73329 8.39392 11.6329V13.1382C8.39392 14.2063 7.92598 15.2145 7.10476 15.9092C6.89501 16.0889 6.77441 16.3505 6.77441 16.6267C6.77441 17.1474 7.19787 17.5716 7.71939 17.5716H16.6267C17.1474 17.5716 17.5716 17.1482 17.5716 16.6267C17.5716 16.3505 17.451 16.0889 17.2363 15.9051C16.8097 15.5449 16.4817 15.0971 16.2623 14.5999Z" fill="#BE63F9"/>
<path d="M16.2218 6.77441C14.2874 6.77441 12.7131 8.34864 12.7131 10.2831C12.7131 12.2175 14.2874 13.7917 16.2218 13.7917C18.1562 13.7917 19.7305 12.2183 19.7305 10.2831C19.7305 8.34785 18.1562 6.77441 16.2218 6.77441ZM17.8445 9.69197L16.0897 11.7163C15.9919 11.8296 15.8509 11.8968 15.7011 11.9026C15.6947 11.9026 15.6882 11.9026 15.6817 11.9026C15.5392 11.9026 15.4016 11.8458 15.3003 11.7446L14.3554 10.7996C14.1448 10.5891 14.1448 10.2475 14.3554 10.0362C14.5659 9.82561 14.9075 9.82561 15.1189 10.0362L15.6534 10.5705L17.0284 8.98423C17.2243 8.75826 17.5643 8.73474 17.7895 8.93006C18.0155 9.12597 18.0388 9.4668 17.8445 9.69197Z" fill="#D9A4FC"/>
</g>
<defs>
<clipPath id="clip0_33460_230">
<rect width="25.912" height="25.912" fill="white" transform="translate(0.296387 0.296875)"/>
</clipPath>
</defs>
</svg>
