<svg width="37" height="37" viewBox="0 0 37 37" fill="none" xmlns="http://www.w3.org/2000/svg">
<path opacity="0.25" fill-rule="evenodd" clip-rule="evenodd" d="M18.5 36C28.165 36 36 28.165 36 18.5C36 8.83502 28.165 1 18.5 1C8.83502 1 1 8.83502 1 18.5C1 28.165 8.83502 36 18.5 36Z" stroke="white" stroke-width="1.5"/>
<g clip-path="url(#clip0_98_107439)">
<path d="M19 12.4418C21.1374 12.4418 21.3883 12.4514 22.233 12.4895C23.0143 12.5244 23.4367 12.6546 23.7193 12.7658C24.0941 12.9119 24.3609 13.0834 24.6403 13.3628C24.9198 13.6423 25.0945 13.9091 25.2374 14.2838C25.3454 14.5665 25.4788 14.9889 25.5137 15.7701C25.5518 16.6149 25.5613 16.8658 25.5613 19.0032C25.5613 21.1405 25.5518 21.3914 25.5137 22.2362C25.4788 23.0175 25.3486 23.4399 25.2374 23.7225C25.0913 24.0973 24.9198 24.364 24.6403 24.6435C24.3609 24.923 24.0941 25.0977 23.7193 25.2406C23.4367 25.3486 23.0143 25.4819 22.233 25.5169C21.3883 25.555 21.1374 25.5645 19 25.5645C16.8626 25.5645 16.6118 25.555 15.767 25.5169C14.9857 25.4819 14.5633 25.3517 14.2807 25.2406C13.9059 25.0945 13.6391 24.923 13.3597 24.6435C13.0802 24.364 12.9055 24.0973 12.7626 23.7225C12.6546 23.4399 12.5212 23.0175 12.4863 22.2362C12.4482 21.3914 12.4387 21.1405 12.4387 19.0032C12.4387 16.8658 12.4482 16.6149 12.4863 15.7701C12.5212 14.9889 12.6515 14.5665 12.7626 14.2838C12.9087 13.9091 13.0802 13.6423 13.3597 13.3628C13.6391 13.0834 13.9059 12.9087 14.2807 12.7658C14.5633 12.6578 14.9857 12.5244 15.767 12.4895C16.6118 12.4482 16.8658 12.4418 19 12.4418ZM19 11C16.8277 11 16.5546 11.0095 15.7003 11.0476C14.8491 11.0857 14.268 11.2223 13.7598 11.4192C13.2326 11.6225 12.788 11.8988 12.3434 12.3434C11.8988 12.788 11.6256 13.2358 11.4192 13.7598C11.2223 14.268 11.0857 14.8491 11.0476 15.7035C11.0095 16.5546 11 16.8277 11 19C11 21.1723 11.0095 21.4454 11.0476 22.2997C11.0857 23.1509 11.2223 23.732 11.4192 24.2434C11.6225 24.7705 11.8988 25.2152 12.3434 25.6598C12.788 26.1044 13.2358 26.3775 13.7598 26.584C14.268 26.7809 14.8491 26.9174 15.7035 26.9555C16.5578 26.9936 16.8277 27.0032 19.0032 27.0032C21.1786 27.0032 21.4486 26.9936 22.3029 26.9555C23.154 26.9174 23.7352 26.7809 24.2465 26.584C24.7737 26.3807 25.2184 26.1044 25.663 25.6598C26.1076 25.2152 26.3807 24.7674 26.5871 24.2434C26.7841 23.7352 26.9206 23.154 26.9587 22.2997C26.9968 21.4454 27.0064 21.1755 27.0064 19C27.0064 16.8245 26.9968 16.5546 26.9587 15.7003C26.9206 14.8491 26.7841 14.268 26.5871 13.7566C26.3839 13.2295 26.1076 12.7848 25.663 12.3402C25.2184 11.8956 24.7706 11.6225 24.2465 11.416C23.7384 11.2191 23.1572 11.0826 22.3029 11.0445C21.4454 11.0095 21.1723 11 19 11Z" fill="white"/>
<path d="M19 12.4418C21.1374 12.4418 21.3883 12.4514 22.233 12.4895C23.0143 12.5244 23.4367 12.6546 23.7193 12.7658C24.0941 12.9119 24.3609 13.0834 24.6403 13.3628C24.9198 13.6423 25.0945 13.9091 25.2374 14.2838C25.3454 14.5665 25.4788 14.9889 25.5137 15.7701C25.5518 16.6149 25.5613 16.8658 25.5613 19.0032C25.5613 21.1405 25.5518 21.3914 25.5137 22.2362C25.4788 23.0175 25.3486 23.4399 25.2374 23.7225C25.0913 24.0973 24.9198 24.364 24.6403 24.6435C24.3609 24.923 24.0941 25.0977 23.7193 25.2406C23.4367 25.3486 23.0143 25.4819 22.233 25.5169C21.3883 25.555 21.1374 25.5645 19 25.5645C16.8626 25.5645 16.6118 25.555 15.767 25.5169C14.9857 25.4819 14.5633 25.3517 14.2807 25.2406C13.9059 25.0945 13.6391 24.923 13.3597 24.6435C13.0802 24.364 12.9055 24.0973 12.7626 23.7225C12.6546 23.4399 12.5212 23.0175 12.4863 22.2362C12.4482 21.3914 12.4387 21.1405 12.4387 19.0032C12.4387 16.8658 12.4482 16.6149 12.4863 15.7701C12.5212 14.9889 12.6515 14.5665 12.7626 14.2838C12.9087 13.9091 13.0802 13.6423 13.3597 13.3628C13.6391 13.0834 13.9059 12.9087 14.2807 12.7658C14.5633 12.6578 14.9857 12.5244 15.767 12.4895C16.6118 12.4482 16.8658 12.4418 19 12.4418Z" fill="white"/>
<path d="M18.9999 14.8936C16.7324 14.8936 14.8904 16.7324 14.8904 19.0031C14.8904 21.2739 16.7292 23.1127 18.9999 23.1127C21.2707 23.1127 23.1095 21.2739 23.1095 19.0031C23.1095 16.7324 21.2707 14.8936 18.9999 14.8936ZM18.9999 21.6677C17.5263 21.6677 16.3322 20.4735 16.3322 18.9999C16.3322 17.5263 17.5263 16.3322 18.9999 16.3322C20.4735 16.3322 21.6677 17.5263 21.6677 18.9999C21.6677 20.4735 20.4735 21.6677 18.9999 21.6677Z" fill="black"/>
<path d="M23.2715 15.6878C23.8012 15.6878 24.2306 15.2583 24.2306 14.7286C24.2306 14.1989 23.8012 13.7695 23.2715 13.7695C22.7418 13.7695 22.3124 14.1989 22.3124 14.7286C22.3124 15.2583 22.7418 15.6878 23.2715 15.6878Z" fill="black"/>
</g>
<defs>
<clipPath id="clip0_98_107439">
<rect width="16" height="16" fill="white" transform="translate(11 11)"/>
</clipPath>
</defs>
</svg>
