<svg viewBox="0 0 169 26" x="0" y="0" fill="none" xmlns="http://www.w3.org/2000/svg"><defs><clipPath id="clip15_25_22084" xmlns="http://www.w3.org/2000/svg">
<rect width="169" height="26" fill="white" transform="translate(0, 0)"/>
</clipPath></defs><g id="Layer_1" clip-path="url(#clip15_25_22084)" xmlns="http://www.w3.org/2000/svg">
<path id="Vector_8" d="M34.016,22.6953c-1.633,0 -3.109,-0.4014 -4.429,-1.2078c-1.323,-0.8064 -2.363,-1.9021 -3.12,-3.2907c-0.757,-1.3886 -1.139,-2.9363 -1.139,-4.6431c0,-1.7068 0.379,-3.2835 1.139,-4.6612c0.76,-1.3777 1.797,-2.4662 3.12,-3.2726c1.323,-0.8028 2.796,-1.2078 4.429,-1.2078c1.286,0 2.486,0.264 3.601,0.7847c1.115,0.5243 2.063,1.2729 2.844,2.2492l-2.483,2.6688c-0.484,-0.6076 -1.063,-1.0668 -1.742,-1.3706c-0.678,-0.3037 -1.418,-0.4556 -2.223,-0.4556c-0.941,0 -1.777,0.2242 -2.499,0.6762c-0.723,0.452 -1.286,1.0668 -1.688,1.8479c-0.403,0.781 -0.604,1.6923 -0.604,2.741c0,1.0487 0.201,1.931 0.604,2.7229c0.402,0.792 0.965,1.4139 1.688,1.866c0.722,0.452 1.558,0.6762 2.499,0.6762c0.805,0 1.545,-0.1519 2.223,-0.4557c0.679,-0.3037 1.258,-0.763 1.742,-1.3705l2.483,2.6687c-0.781,0.9764 -1.729,1.7249 -2.844,2.2493c-1.115,0.5243 -2.315,0.7847 -3.601,0.7847z" fill="currentColor"/>
<path id="Vector_9" d="M50.42,22.6953c-1.61,0 -3.069,-0.4086 -4.378,-1.2259c-1.31,-0.8172 -2.35,-1.9202 -3.12,-3.3088c-0.771,-1.3885 -1.156,-2.9363 -1.156,-4.6431c0,-1.7068 0.385,-3.24 1.156,-4.6069c0.77,-1.3633 1.81,-2.4554 3.12,-3.2726c1.309,-0.8173 2.768,-1.2259 4.378,-1.2259c1.609,0 3.103,0.4014 4.412,1.2078c1.309,0.8028 2.349,1.8949 3.12,3.2726c0.771,1.3777 1.156,2.9182 1.156,4.625c0,1.7068 -0.385,3.2546 -1.156,4.6431c-0.771,1.3886 -1.811,2.4916 -3.12,3.3088c-1.309,0.8173 -2.782,1.2259 -4.412,1.2259zM50.42,18.8188c0.941,0 1.776,-0.2242 2.499,-0.6762c0.723,-0.4521 1.286,-1.0776 1.688,-1.884c0.402,-0.8028 0.603,-1.7177 0.603,-2.7411c0,-1.0233 -0.208,-1.9238 -0.62,-2.7048c-0.413,-0.7811 -0.979,-1.3959 -1.688,-1.8479c-0.713,-0.452 -1.541,-0.6762 -2.482,-0.6762c-0.941,0 -1.739,0.2242 -2.466,0.6762c-0.722,0.452 -1.285,1.0668 -1.687,1.8479c-0.403,0.781 -0.604,1.6815 -0.604,2.7048c0,1.0234 0.201,1.9383 0.604,2.7411c0.402,0.8027 0.965,1.4319 1.687,1.884c0.723,0.452 1.545,0.6762 2.466,0.6762z" fill="currentColor"/>
<path id="Vector_10" d="M69.041,22.6946c-1.402,0 -2.65,-0.3291 -3.741,-0.9872c-1.091,-0.6581 -1.943,-1.5658 -2.55,-2.723c-0.611,-1.1571 -0.914,-2.4915 -0.914,-4.003v-10.2011h3.792v10.0167c0,0.8534 0.133,1.5802 0.395,2.1769c0.263,0.5966 0.655,1.0559 1.173,1.3705c0.518,0.3182 1.132,0.4737 1.845,0.4737c1.105,0 1.947,-0.3471 2.533,-1.0414c0.587,-0.6943 0.88,-1.6888 0.88,-2.9797v-10.0167h3.792v10.2011c0,1.5368 -0.304,2.882 -0.914,4.0392c-0.61,1.1572 -1.453,2.0612 -2.534,2.7049c-1.08,0.6436 -2.332,0.9691 -3.757,0.9691z" fill="currentColor"/>
<path id="Vector_11" d="M83.862,4.7803h-3.792v17.5491h3.792z" fill="currentColor"/>
<path id="Vector_12" d="M92.727,4.7806h11.722v3.6559h-11.722zM96.689,0.0254h3.791v22.3079h-3.791z" fill="currentColor"/>
<path id="Vector_13" d="M119.969,22.6953c-1.633,0 -3.109,-0.4014 -4.429,-1.2078c-1.323,-0.8064 -2.363,-1.9021 -3.12,-3.2907c-0.757,-1.3886 -1.139,-2.9363 -1.139,-4.6431c0,-1.7068 0.379,-3.2835 1.139,-4.6612c0.761,-1.3777 1.797,-2.4662 3.12,-3.2726c1.323,-0.8028 2.796,-1.2078 4.429,-1.2078c1.286,0 2.486,0.264 3.601,0.7847c1.115,0.5243 2.063,1.2729 2.844,2.2492l-2.482,2.6688c-0.485,-0.6076 -1.064,-1.0668 -1.743,-1.3706c-0.678,-0.3037 -1.418,-0.4556 -2.223,-0.4556c-0.941,0 -1.776,0.2242 -2.499,0.6762c-0.723,0.452 -1.286,1.0668 -1.688,1.8479c-0.403,0.781 -0.604,1.6923 -0.604,2.741c0,1.0487 0.201,1.931 0.604,2.7229c0.402,0.792 0.965,1.4139 1.688,1.866c0.723,0.452 1.558,0.6762 2.499,0.6762c0.805,0 1.545,-0.1519 2.223,-0.4557c0.679,-0.3037 1.258,-0.763 1.743,-1.3705l2.482,2.6687c-0.781,0.9764 -1.729,1.7249 -2.844,2.2493c-1.115,0.5243 -2.315,0.7847 -3.601,0.7847z" fill="currentColor"/>
<path id="Vector_14" d="M132.932,0.0254h-3.791v22.3079h3.791z" fill="currentColor"/>
<path id="Vector_15" d="M139.068,4.8276c-0.644,0 -1.179,-0.2314 -1.602,-0.6943c-0.426,-0.4629 -0.638,-1.0342 -0.638,-1.7177c0,-0.6834 0.212,-1.2548 0.638,-1.7176c0.426,-0.4629 0.958,-0.6943 1.602,-0.6943c0.645,0 1.207,0.2314 1.62,0.6943c0.413,0.4628 0.621,1.0378 0.621,1.7176c0,0.6799 -0.208,1.2548 -0.621,1.7177c-0.413,0.4629 -0.955,0.6943 -1.62,0.6943zM137.173,6.491h3.791v15.8387h-3.791z" fill="currentColor"/>
<path id="Vector_16" d="M83.86,15.9975l0.004,-7.6192h6.059l0.017,-3.598h-6.635" fill="currentColor"/>
<g id="Group 1261156380">
<path id="Vector_17" d="M0,9.4418c0,-1.6815 0.3683,-3.2039 1.1048,-4.5671c0.7365,-1.3633 1.7424,-2.4337 3.0142,-3.2148c1.2719,-0.7811 2.6904,-1.1716 4.2555,-1.1716c1.5651,0 3.0108,0.3905 4.2725,1.1716c1.2616,0.7811 2.2607,1.8515 2.9972,3.2148c0.7365,1.3632 1.1047,2.882 1.1047,4.5671c0,1.3272 -0.2386,2.5639 -0.7194,3.7138c-0.4808,1.1499 -1.1662,2.1263 -2.0595,2.9327l-2.7313,-2.2565c0.5592,-0.499 1.2616,-1.3958 1.5412,-2.0937c0.2796,-0.6979 0.4194,-1.4646 0.4194,-2.2927c0,-0.9727 -0.208,-1.8297 -0.6205,-2.5746c-0.4126,-0.745 -0.9787,-1.3272 -1.6913,-1.7394c-0.7161,-0.4159 -1.5515,-0.622 -2.513,-0.622c-0.9616,0 -1.7697,0.2061 -2.496,0.622c-0.7263,0.4122 -1.2957,0.9944 -1.7083,1.7394c-0.4126,0.7449 -0.6206,1.6055 -0.6206,2.5746c0,0.8281 0.1398,1.5911 0.4194,2.2927c0.2796,0.6979 1.0775,1.6996 1.6367,2.1986l-2.8267,2.1552c-0.8934,-0.8064 -1.5822,-1.7828 -2.0595,-2.9327c-0.4808,-1.1499 -0.7195,-2.3866 -0.7195,-3.7138" fill="currentColor"/>
<path id="Vector_18" d="M8.4059,14.3381l-7.8903,6.5705v5.0879l7.8733,-6.321l7.8936,6.3247v-5.2073z" fill="currentColor"/>
</g>
<path id="Vector_19" d="M152.803,22.7997c-1.643,0 -3.133,-0.405 -4.467,-1.215c-1.333,-0.81 -2.38,-1.9165 -3.143,-3.316c-0.764,-1.3994 -1.146,-2.9616 -1.146,-4.6793c0,-1.7176 0.382,-3.3087 1.146,-4.6973c0.763,-1.3886 1.814,-2.4879 3.143,-3.2979c1.334,-0.81 2.82,-1.215 4.467,-1.215c1.296,0 2.506,0.2639 3.632,0.7919c1.122,0.5279 2.08,1.2837 2.867,2.2673l-2.206,3.0014c-0.487,-0.6148 -1.367,-1.385 -2.049,-1.6924c-0.682,-0.3073 -1.432,-0.4592 -2.24,-0.4592c-0.952,0 -1.79,0.2278 -2.52,0.6798c-0.73,0.4557 -1.299,1.074 -1.702,1.8623c-0.405,0.7847 -0.607,1.7068 -0.607,2.7628c0,1.0559 0.202,1.9491 0.607,2.7446c0.406,0.7992 0.972,1.4248 1.702,1.8804c0.73,0.4556 1.568,0.6798 2.52,0.6798c0.811,0 1.558,-0.1518 2.24,-0.4592c0.682,-0.3074 1.664,-1.1861 2.148,-1.8009l2.107,3.1063c-0.787,0.9836 -1.742,1.7394 -2.867,2.2673c-1.126,0.528 -2.336,0.792 -3.632,0.792" fill="currentColor"/>
<path id="Vector_20" d="M157.594,13.5498l6.427,8.6787h4.979l-6.182,-8.6607l6.182,-8.6823h-5.091z" fill="currentColor"/>
</g></svg>