<svg width="37" height="37" viewBox="0 0 37 37" fill="none" xmlns="http://www.w3.org/2000/svg">
<path opacity="0.25" fill-rule="evenodd" clip-rule="evenodd" d="M18.5 36C28.165 36 36 28.165 36 18.5C36 8.83502 28.165 1 18.5 1C8.83502 1 1 8.83502 1 18.5C1 28.165 8.83502 36 18.5 36Z" stroke="white" stroke-width="1.5"/>
<g clip-path="url(#clip0_98_107445)">
<path d="M25.8189 11H12.1811C11.8679 11 11.5674 11.1244 11.3459 11.3459C11.1244 11.5674 11 11.8679 11 12.1811V25.8189C11 26.1321 11.1244 26.4326 11.3459 26.6541C11.5674 26.8756 11.8679 27 12.1811 27H25.8189C26.1321 27 26.4326 26.8756 26.6541 26.6541C26.8756 26.4326 27 26.1321 27 25.8189V12.1811C27 11.8679 26.8756 11.5674 26.6541 11.3459C26.4326 11.1244 26.1321 11 25.8189 11ZM15.7689 24.63H13.3633V16.9889H15.7689V24.63ZM14.5644 15.93C14.2916 15.9285 14.0253 15.8461 13.7992 15.6934C13.573 15.5407 13.3972 15.3244 13.2939 15.0718C13.1906 14.8192 13.1644 14.5417 13.2187 14.2743C13.2729 14.0069 13.4052 13.7615 13.5988 13.5692C13.7923 13.3769 14.0385 13.2462 14.3063 13.1936C14.5741 13.1411 14.8514 13.1691 15.1033 13.274C15.3552 13.3789 15.5704 13.5561 15.7216 13.7832C15.8729 14.0103 15.9535 14.2771 15.9533 14.55C15.9559 14.7327 15.9217 14.914 15.8527 15.0832C15.7837 15.2524 15.6813 15.4059 15.5517 15.5347C15.4221 15.6635 15.2679 15.7649 15.0983 15.8328C14.9287 15.9007 14.7471 15.9337 14.5644 15.93ZM24.6356 24.6367H22.2311V20.4622C22.2311 19.2311 21.7078 18.8511 21.0322 18.8511C20.3189 18.8511 19.6189 19.3889 19.6189 20.4933V24.6367H17.2133V16.9944H19.5267V18.0533H19.5578C19.79 17.5833 20.6033 16.78 21.8444 16.78C23.1867 16.78 24.6367 17.5767 24.6367 19.91L24.6356 24.6367Z" fill="white"/>
</g>
<defs>
<clipPath id="clip0_98_107445">
<rect width="16" height="16" fill="white" transform="translate(11 11)"/>
</clipPath>
</defs>
</svg>
