<svg width="127" height="37" viewBox="0 0 127 37" fill="none" xmlns="http://www.w3.org/2000/svg">
<rect x="0.25" y="0.25" width="126.5" height="36.4903" rx="18.2451" fill="#1F0D19" stroke="white" stroke-width="0.5"/>
<path d="M46.2212 10.0235C46.2212 10.6596 46.0553 11.2166 45.6426 11.6138C45.1463 12.0916 44.5691 12.3291 43.8246 12.3291C43.0801 12.3291 42.5029 12.0902 42.0065 11.6138C41.5102 11.1361 41.2634 10.5804 41.2634 9.86379C41.2634 9.14713 41.5116 8.59152 42.0065 8.11375C42.5029 7.63598 43.0801 7.39844 43.8246 7.39844C44.155 7.39844 44.4854 7.47762 44.8159 7.63732C45.1463 7.79703 45.3944 7.95539 45.559 8.19427L45.1463 8.59152C44.8159 8.19427 44.4032 8.03457 43.8246 8.03457C43.3282 8.03457 42.8333 8.19427 42.5029 8.59152C42.0902 8.90959 41.9243 9.38736 41.9243 9.94297C41.9243 10.4986 42.0902 10.9763 42.5029 11.2944C42.9156 11.6125 43.3296 11.8514 43.8246 11.8514C44.4032 11.8514 44.8158 11.6917 45.2285 11.2944C45.4767 11.0555 45.6412 10.7375 45.6412 10.3402H43.8232V9.70408H46.2198V10.0221L46.2212 10.0235ZM50.0218 8.03591H47.7911V9.54706H49.8559V10.104H47.7911V11.6152H50.0218V12.2513H47.1302V7.47896H50.0218V8.03591ZM52.7489 12.2513H52.088V8.03591H50.684V7.47896H54.1542V8.03591H52.7502V12.2513H52.7489ZM56.5494 12.2513V7.47896H57.2103V12.2513H56.5494ZM60.0196 12.2513H59.3588V8.03591H57.9548V7.47896H61.3427V8.03591H59.9387V12.2513H60.021H60.0196ZM67.869 11.6152C67.3726 12.0929 66.7954 12.3305 66.0509 12.3305C65.3064 12.3305 64.7292 12.0916 64.2329 11.6152C63.7365 11.1374 63.4898 10.5818 63.4898 9.86513C63.4898 9.14847 63.7379 8.59286 64.2329 8.11509C64.7292 7.63732 65.3064 7.39978 66.0509 7.39978C66.7954 7.39978 67.3726 7.63866 67.869 8.11509C68.3653 8.59286 68.6121 9.14847 68.6121 9.86513C68.6121 10.5818 68.3639 11.1374 67.869 11.6152ZM64.7292 11.2179C65.0596 11.536 65.556 11.7749 66.0509 11.7749C66.5459 11.7749 67.0422 11.6152 67.3726 11.2179C67.7031 10.8998 67.9512 10.4221 67.9512 9.86647C67.9512 9.31086 67.7853 8.83309 67.3726 8.51502C67.0422 8.19696 66.5459 7.95807 66.0509 7.95807C65.556 7.95807 65.0596 8.11778 64.7292 8.51502C64.3988 8.83309 64.1506 9.31086 64.1506 9.86647C64.1506 10.4221 64.3165 10.8998 64.7292 11.2179ZM69.5211 12.2513V7.47896H70.2642L72.6608 11.2166V7.47896H73.3217V12.2513H72.6608L70.0997 8.35398V12.2513H69.5211Z" fill="#F9F9F9"/>
<path d="M63.6948 19.8019C61.7013 19.8019 60.1228 21.2471 60.1228 23.253C60.1228 25.2589 61.7013 26.704 63.6948 26.704C65.6883 26.704 67.2668 25.2589 67.2668 23.253C67.2668 21.2471 65.6883 19.8019 63.6948 19.8019ZM63.6948 25.2602C62.6154 25.2602 61.7013 24.3772 61.7013 23.1731C61.7013 21.969 62.6154 21.0859 63.6948 21.0859C64.7743 21.0859 65.6883 21.8891 65.6883 23.1731C65.6883 24.3772 64.7743 25.2602 63.6948 25.2602ZM55.9691 19.8019C53.9756 19.8019 52.3971 21.2471 52.3971 23.253C52.3971 25.2589 53.9756 26.704 55.9691 26.704C57.9625 26.704 59.5411 25.2589 59.5411 23.253C59.5411 21.2471 57.9625 19.8019 55.9691 19.8019ZM55.9691 25.2602C54.8896 25.2602 53.9756 24.3772 53.9756 23.1731C53.9756 21.969 54.8896 21.0859 55.9691 21.0859C57.0485 21.0859 57.9626 21.8891 57.9626 23.1731C57.9626 24.3772 57.0485 25.2602 55.9691 25.2602ZM46.7476 20.8462V22.2914H50.3195C50.2368 23.0945 49.9046 23.7365 49.4882 24.1374C48.9892 24.6196 48.1592 25.1803 46.7462 25.1803C44.5032 25.1803 42.8419 23.4954 42.8419 21.3284C42.8419 19.1613 44.5859 17.4764 46.7462 17.4764C47.9097 17.4764 48.8223 17.9586 49.4882 18.5193L50.5677 17.4764C49.6536 16.6732 48.4915 16.0312 46.8289 16.0312C43.8387 16.0312 41.2634 18.4394 41.2634 21.3284C41.2634 24.2173 43.8387 26.6255 46.8289 26.6255C48.4901 26.6255 49.6536 26.1433 50.6504 25.1004C51.6471 24.1374 51.9793 22.7722 51.9793 21.7293C51.9793 21.4083 51.9794 21.0873 51.8966 20.8462H46.7462H46.7476ZM84.4636 21.9704C84.1313 21.1672 83.3 19.8033 81.4734 19.8033C79.6467 19.8033 78.1509 21.1672 78.1509 23.2543C78.1509 25.1803 79.6467 26.7054 81.6402 26.7054C83.2187 26.7054 84.2154 25.7424 84.5477 25.1803L83.3841 24.3772C82.9692 24.9392 82.4701 25.3401 81.6402 25.3401C80.8103 25.3401 80.3112 25.0191 79.8963 24.2972L84.6318 22.3713L84.465 21.9704H84.4636ZM79.6453 23.0945C79.6453 21.8105 80.7248 21.0886 81.4734 21.0886C82.0552 21.0886 82.6369 21.4096 82.8023 21.8105L79.6453 23.0945ZM75.7411 26.3857H77.3196V16.3536H75.7411V26.3857ZM73.2486 20.5266C72.8336 20.1256 72.1691 19.7234 71.3378 19.7234C69.5939 19.7234 67.9313 21.2485 67.9313 23.1744C67.9313 25.1004 69.5098 26.5456 71.3378 26.5456C72.1691 26.5456 72.8336 26.1447 73.1659 25.7424H73.2486V26.2246C73.2486 27.5086 72.5014 28.2305 71.3378 28.2305C70.4238 28.2305 69.7593 27.5885 69.5939 27.0264L68.2649 27.5885C68.6799 28.4715 69.6766 29.5944 71.4219 29.5944C73.1673 29.5944 74.7444 28.5515 74.7444 26.0634V19.9631H73.2486V20.5252V20.5266ZM71.4205 25.2616C70.3411 25.2616 69.4271 24.3785 69.4271 23.1744C69.4271 21.9704 70.3411 21.0873 71.4205 21.0873C72.5 21.0873 73.3313 21.9704 73.3313 23.1744C73.3313 24.3785 72.5 25.2616 71.4205 25.2616ZM91.6902 16.3522H87.9514V26.3844H89.5299V22.6123H91.6902C93.4342 22.6123 95.0968 21.4083 95.0968 19.4823C95.0968 17.5563 93.4356 16.3522 91.6902 16.3522ZM91.7729 21.1685H89.5299V17.7175H91.7729C92.9365 17.7175 93.601 18.6805 93.601 19.4024C93.5183 20.2855 92.8538 21.1685 91.7729 21.1685ZM101.327 19.7234C100.163 19.7234 99.001 20.2056 98.5846 21.2485L99.9963 21.8105C100.329 21.2485 100.828 21.0886 101.408 21.0886C102.239 21.0886 102.987 21.5708 103.069 22.3726V22.4525C102.82 22.2914 102.155 22.0516 101.491 22.0516C99.9949 22.0516 98.5005 22.8548 98.5005 24.2986C98.5005 25.6625 99.7468 26.5456 101.076 26.5456C102.155 26.5456 102.654 26.0634 103.069 25.5826H103.152V26.3857H104.648V22.5338C104.481 20.7676 103.069 19.7247 101.325 19.7247L101.327 19.7234ZM101.16 25.2616C100.661 25.2616 99.9136 25.0205 99.9136 24.3785C99.9136 23.5753 100.828 23.3356 101.575 23.3356C102.239 23.3356 102.572 23.4968 102.987 23.6566C102.82 24.6196 101.99 25.2616 101.158 25.2616H101.16ZM109.882 19.9645L108.138 24.2986H108.056L106.228 19.9645H104.566L107.309 26.0648L105.73 29.4359H107.309L111.545 19.9645H109.884H109.882ZM95.9253 26.3857H97.5038V16.3536H95.9253V26.3857Z" fill="#F9F9F9"/>
<g clip-path="url(#clip0_218_35759)">
<path d="M17.9594 8.32232C17.4184 7.99665 16.7736 7.96753 16.2113 8.23864L25.6397 17.6871L28.7224 14.59L17.9594 8.32232ZM15.345 9.1131C15.2261 9.36494 15.1621 9.64508 15.1621 9.93343V27.2168C15.1621 27.5063 15.2265 27.7824 15.3467 28.0289L24.7713 18.5595L15.345 9.1131ZM25.6409 19.4307L16.2277 28.8886C16.4775 29.0042 16.7433 29.0547 17.0087 29.0547C17.3364 29.0547 17.6633 28.9763 17.9594 28.7983L28.7245 22.5212L25.6409 19.4307ZM32.8216 16.9771C32.8179 16.9746 32.8138 16.9722 32.8101 16.9701L29.8217 15.2298L26.5088 18.5583L29.8237 21.8802C29.8237 21.8802 32.8179 20.1345 32.8216 20.1325C33.3774 19.7949 33.7092 19.2051 33.7092 18.5546C33.7092 17.9041 33.3774 17.3143 32.8216 16.9771Z" fill="#F9F9F9"/>
</g>
<defs>
<clipPath id="clip0_218_35759">
<rect width="21" height="21" fill="white" transform="translate(13.9355 8.05469)"/>
</clipPath>
</defs>
</svg>
