<svg width="40" height="40" viewBox="0 0 40 40" fill="none" xmlns="http://www.w3.org/2000/svg">
<g clip-path="url(#clip0_20_1890)">
<path d="M39.4122 26.8365L33.1634 20.5877C32.9874 20.4117 32.7488 20.3128 32.5 20.3125H24.375C23.6293 20.3133 22.9144 20.6099 22.3872 21.1372C21.8599 21.6644 21.5633 22.3793 21.5625 23.125V36.875C21.5633 37.6207 21.8599 38.3356 22.3872 38.8628C22.9144 39.3901 23.6293 39.6867 24.375 39.6875H36.875C37.6207 39.6867 38.3356 39.3901 38.8628 38.8628C39.3901 38.3356 39.6867 37.6207 39.6875 36.875V27.5C39.6833 27.2519 39.5849 27.0147 39.4122 26.8365ZM26.25 24.2188H28.75C28.9572 24.2188 29.1559 24.3011 29.3024 24.4476C29.4489 24.5941 29.5312 24.7928 29.5312 25C29.5312 25.2072 29.4489 25.4059 29.3024 25.5524C29.1559 25.6989 28.9572 25.7812 28.75 25.7812H26.25C26.0428 25.7812 25.8441 25.6989 25.6976 25.5524C25.5511 25.4059 25.4688 25.2072 25.4688 25C25.4688 24.7928 25.5511 24.5941 25.6976 24.4476C25.8441 24.3011 26.0428 24.2188 26.25 24.2188ZM35 35.7812H26.25C26.0428 35.7812 25.8441 35.6989 25.6976 35.5524C25.5511 35.4059 25.4688 35.2072 25.4688 35C25.4688 34.7928 25.5511 34.5941 25.6976 34.4476C25.8441 34.3011 26.0428 34.2188 26.25 34.2188H35C35.2072 34.2188 35.4059 34.3011 35.5524 34.4476C35.6989 34.5941 35.7812 34.7928 35.7812 35C35.7812 35.2072 35.6989 35.4059 35.5524 35.5524C35.4059 35.6989 35.2072 35.7812 35 35.7812ZM35 32.0312H26.25C26.0428 32.0312 25.8441 31.9489 25.6976 31.8024C25.5511 31.6559 25.4688 31.4572 25.4688 31.25C25.4688 31.0428 25.5511 30.8441 25.6976 30.6976C25.8441 30.5511 26.0428 30.4688 26.25 30.4688H35C35.2072 30.4688 35.4059 30.5511 35.5524 30.6976C35.6989 30.8441 35.7812 31.0428 35.7812 31.25C35.7812 31.4572 35.6989 31.6559 35.5524 31.8024C35.4059 31.9489 35.2072 32.0312 35 32.0312ZM34.375 26.5625C34.1264 26.5622 33.8881 26.4634 33.7124 26.2876C33.5366 26.1119 33.4378 25.8736 33.4375 25.625V23.5132L36.4868 26.5625H34.375Z" fill="#B189BA"/>
<path d="M36.875 5.3125H27.1875V3.125C27.1867 2.37933 26.8901 1.66443 26.3628 1.13716C25.8356 0.609889 25.1207 0.313312 24.375 0.3125H15.625C14.8793 0.313312 14.1644 0.609889 13.6372 1.13716C13.1099 1.66443 12.8133 2.37933 12.8125 3.125V5.3125H3.125C2.37933 5.31331 1.66443 5.60989 1.13716 6.13716C0.609889 6.66443 0.313312 7.37933 0.3125 8.125V36.875C0.313312 37.6207 0.609889 38.3356 1.13716 38.8628C1.66443 39.3901 2.37933 39.6867 3.125 39.6875H18.75C18.9986 39.6875 19.2371 39.5887 19.4129 39.4129C19.5887 39.2371 19.6875 38.9986 19.6875 38.75C19.6875 38.5014 19.5887 38.2629 19.4129 38.0871C19.2371 37.9113 18.9986 37.8125 18.75 37.8125H3.125C2.87644 37.8122 2.63814 37.7134 2.46239 37.5376C2.28663 37.3619 2.18777 37.1236 2.1875 36.875V27.1875H6.5625V28.75C6.56248 28.8731 6.58672 28.995 6.63382 29.1088C6.68093 29.2225 6.74999 29.3259 6.83705 29.413C6.9241 29.5 7.02746 29.5691 7.14121 29.6162C7.25496 29.6633 7.37688 29.6875 7.5 29.6875H12.5C12.6231 29.6875 12.745 29.6633 12.8588 29.6162C12.9725 29.5691 13.0759 29.5 13.163 29.413C13.25 29.3259 13.3191 29.2225 13.3662 29.1088C13.4133 28.995 13.4375 28.8731 13.4375 28.75V27.1875H18.75C18.9986 27.1875 19.2371 27.0887 19.4129 26.9129C19.5887 26.7371 19.6875 26.4986 19.6875 26.25C19.6875 26.0014 19.5887 25.7629 19.4129 25.5871C19.2371 25.4113 18.9986 25.3125 18.75 25.3125H13.4375V23.75C13.4375 23.6269 13.4133 23.505 13.3662 23.3912C13.3191 23.2775 13.25 23.1741 13.163 23.087C13.0759 23 12.9725 22.9309 12.8588 22.8838C12.745 22.8367 12.6231 22.8125 12.5 22.8125H7.5C7.37688 22.8125 7.25496 22.8367 7.14121 22.8838C7.02746 22.9309 6.9241 23 6.83705 23.087C6.74999 23.1741 6.68093 23.2775 6.63382 23.3912C6.58672 23.505 6.56248 23.6269 6.5625 23.75V25.3125H2.1875V8.125C2.18777 7.87644 2.28663 7.63814 2.46239 7.46239C2.63814 7.28663 2.87644 7.18777 3.125 7.1875H36.875C37.1236 7.18777 37.3619 7.28663 37.5376 7.46239C37.7134 7.63814 37.8122 7.87644 37.8125 8.125V22.1967C37.8125 22.4453 37.9113 22.6838 38.0871 22.8596C38.2629 23.0354 38.5014 23.1342 38.75 23.1342C38.9986 23.1342 39.2371 23.0354 39.4129 22.8596C39.5887 22.6838 39.6875 22.4453 39.6875 22.1967V8.125C39.6867 7.37933 39.3901 6.66443 38.8628 6.13716C38.3356 5.60989 37.6207 5.31331 36.875 5.3125ZM8.4375 24.6875H11.5625V27.8125H8.4375V24.6875ZM14.6875 3.125C14.6878 2.87644 14.7866 2.63814 14.9624 2.46239C15.1381 2.28663 15.3764 2.18777 15.625 2.1875H24.375C24.6236 2.18777 24.8619 2.28663 25.0376 2.46239C25.2134 2.63814 25.3122 2.87644 25.3125 3.125V5.3125H14.6875V3.125Z" fill="#1F0D19"/>
<path d="M28.75 15.9375C28.9986 15.9375 29.2371 15.8387 29.4129 15.6629C29.5887 15.4871 29.6875 15.2486 29.6875 15V13.4375H31.25C31.4986 13.4375 31.7371 13.3387 31.9129 13.1629C32.0887 12.9871 32.1875 12.7486 32.1875 12.5C32.1875 12.2514 32.0887 12.0129 31.9129 11.8371C31.7371 11.6613 31.4986 11.5625 31.25 11.5625H8.75C8.50136 11.5625 8.2629 11.6613 8.08709 11.8371C7.91127 12.0129 7.8125 12.2514 7.8125 12.5C7.8125 12.7486 7.91127 12.9871 8.08709 13.1629C8.2629 13.3387 8.50136 13.4375 8.75 13.4375H27.8125V15C27.8125 15.2486 27.9113 15.4871 28.0871 15.6629C28.2629 15.8387 28.5014 15.9375 28.75 15.9375Z" fill="#1F0D19"/>
</g>
<defs>
<clipPath id="clip0_20_1890">
<rect width="40" height="40" fill="white"/>
</clipPath>
</defs>
</svg>
