<svg width="32" height="32" viewBox="0 0 32 32" fill="none" xmlns="http://www.w3.org/2000/svg">
<g clip-path="url(#clip0_20_2286)">
<mask id="mask0_20_2286" style="mask-type:luminance" maskUnits="userSpaceOnUse" x="0" y="0" width="32" height="32">
<path d="M0 3.8147e-06H32V32H0V3.8147e-06Z" fill="white"/>
</mask>
<g mask="url(#mask0_20_2286)">
<path d="M28.5016 24.5137V29.4399C28.5016 29.9167 28.1091 30.3094 27.6316 30.3094H4.63237C4.15482 30.3093 3.7623 29.9166 3.7623 29.4399V24.5137C3.7623 24.1654 3.48004 23.8831 3.13182 23.8831C2.78361 23.8831 2.50134 24.1654 2.50134 24.5137V29.4399C2.50134 30.6136 3.45893 31.5703 4.63237 31.5703H27.6316C28.8051 31.5703 29.7626 30.6136 29.7626 29.4399V24.5137C29.7626 24.1654 29.4803 23.8831 29.1321 23.8831C28.7839 23.8831 28.5016 24.1654 28.5016 24.5137Z" fill="#EDE8EB"/>
<path d="M16.3536 7.21225V8.85027C16.3536 9.91167 15.7775 10.891 14.9335 11.5145L14.9334 11.5146C14.3614 11.9374 13.6946 12.1729 13.0538 12.1687C11.4012 12.1567 9.7451 10.6445 9.74509 8.85027V7.21408C9.74509 6.86587 9.46282 6.58356 9.11461 6.58356C8.76639 6.58356 8.48413 6.86587 8.48413 7.21408V8.85027C8.48414 11.3804 10.7432 13.4131 13.0448 13.4297H13.0896C14.0241 13.4251 14.9346 13.0818 15.6828 12.5288L15.7347 12.4899C16.8201 11.6657 17.6146 10.3507 17.6146 8.85027V7.21225C17.6146 6.86404 17.3323 6.58173 16.9841 6.58173C16.6359 6.58173 16.3536 6.86403 16.3536 7.21225Z" fill="#EDE8EB"/>
<path d="M9.11406 7.84296C10.8339 7.84446 12.8758 7.91072 14.3238 6.41391C14.5521 6.77565 14.8005 7.05974 15.1055 7.27373C15.6236 7.6373 16.2284 7.73961 16.8932 7.83641L16.9094 7.83856C17.2478 7.8791 17.5587 7.64253 17.608 7.30334C17.6582 6.95876 17.4195 6.63872 17.0749 6.58855L16.9486 6.56978C16.339 6.47687 16.0531 6.39822 15.8297 6.24147C15.5966 6.07792 15.3546 5.77056 14.9974 4.9899C14.9004 4.77777 14.6941 4.63656 14.4612 4.62282C14.2284 4.60908 14.0069 4.72506 13.8856 4.9243C12.8774 6.58007 11.2654 6.58388 9.11516 6.582C8.76694 6.5817 8.48444 6.86371 8.48413 7.21193C8.48383 7.56014 8.76585 7.84265 9.11406 7.84296Z" fill="#EDE8EB"/>
<path d="M14.2596 12.2949V14.0533C13.9958 14.2631 13.5332 14.4182 12.9809 14.4187C12.4211 14.4192 12.001 14.2629 11.7843 14.076V12.2525C11.7843 11.9043 11.502 11.622 11.1538 11.622C10.8056 11.622 10.5233 11.9043 10.5233 12.2525V14.3101C10.5233 14.4354 10.5607 14.5579 10.6306 14.6618C11.1376 15.4161 12.1476 15.6804 12.982 15.6797C13.8271 15.6789 14.8286 15.4087 15.3858 14.6997C15.4731 14.5886 15.5206 14.4514 15.5206 14.3101V12.2949C15.5206 11.9467 15.2383 11.6645 14.8901 11.6645C14.5419 11.6645 14.2596 11.9467 14.2596 12.2949Z" fill="#EDE8EB"/>
<path d="M12.4244 15.2518C12.8397 16.6539 14.0088 17.2672 15.1615 17.1792C16.2865 17.0934 17.4108 16.3436 17.8365 15.0847C17.9481 14.7549 17.7711 14.397 17.4412 14.2855C17.1114 14.1739 16.7535 14.3509 16.642 14.6808C16.3892 15.4281 15.7215 15.8718 15.0656 15.9219C14.4465 15.9692 13.8551 15.6712 13.6274 14.8728L13.6227 14.8571C13.521 14.5319 13.1778 14.3453 12.8482 14.4393C12.5133 14.5348 12.3192 14.8836 12.4147 15.2185L12.4244 15.2518Z" fill="#EDE8EB"/>
<path d="M12.3905 15.0499V18.1664C12.3905 18.5146 12.6728 18.7969 13.021 18.7969C13.3692 18.7969 13.6515 18.5146 13.6515 18.1664V15.0499C13.6515 14.7016 13.3692 14.4193 13.021 14.4193C12.6728 14.4193 12.3905 14.7016 12.3905 15.0499Z" fill="#EDE8EB"/>
<path d="M-0.00549316 23.0705V23.368C-0.00549062 24.3451 0.79078 25.1406 1.76765 25.1406H13.4923L13.5086 25.1404C13.8493 25.1318 14.1228 24.8529 14.1228 24.5101C14.1228 24.1674 13.8493 23.8885 13.5086 23.8799L13.4923 23.8797H1.76765C1.48667 23.8797 1.25547 23.6481 1.25546 23.368V23.0705C1.25546 22.7902 1.48669 22.5588 1.76765 22.5588H30.2323C30.5121 22.5588 30.7445 22.7909 30.7445 23.0705V23.368C30.7445 23.6474 30.5121 23.8797 30.2323 23.8797H18.6282C18.28 23.8797 17.9977 24.1619 17.9977 24.5101C17.9977 24.8584 18.28 25.1406 18.6282 25.1406H30.2323C31.2067 25.1406 32.0055 24.3457 32.0055 23.368V23.0705C32.0055 22.0927 31.2067 21.2978 30.2323 21.2978H1.76765C0.790756 21.2978 -0.00549316 22.0933 -0.00549316 23.0705Z" fill="#EDE8EB"/>
<path d="M29.0559 22.5625L29.0837 22.5619C29.3689 22.5495 29.6118 22.346 29.6723 22.0646L31.5555 13.3081C31.5956 13.1218 31.5493 12.9275 31.4296 12.7793C31.3099 12.6311 31.1296 12.545 30.9391 12.545H17.6059C17.3088 12.545 17.0519 12.7525 16.9895 13.0431L15.1081 21.7996C15.0681 21.9858 15.1144 22.1801 15.234 22.3283C15.3537 22.4764 15.534 22.5625 15.7245 22.5625H29.0559ZM18.1153 13.806H30.1586L28.5466 21.3015H16.5048L18.1153 13.806Z" fill="#EDE8EB"/>
<path d="M5.58383 16.8482C5.90009 16.994 6.27458 16.8557 6.4203 16.5395C6.56603 16.2232 6.4278 15.8487 6.11154 15.703C5.9016 15.6063 5.57164 15.3766 5.29819 15.0833C5.15057 14.925 5.04967 14.7808 4.98608 14.6588C6.23806 13.7517 6.86184 12.3251 7.18097 11.0046C7.53504 9.53939 7.54388 8.08118 7.55011 7.3153L7.55112 7.23721C7.57892 5.60166 8.0445 4.23332 8.90843 3.27663C9.77624 2.31567 11.1118 1.69675 13.0228 1.69675C14.9328 1.69676 16.2679 2.31562 17.1355 3.27659C18.013 4.24848 18.4796 5.6452 18.4937 7.3153V7.31548C18.4991 7.92587 18.5062 8.97269 18.6855 10.1067C18.8637 11.2341 19.2201 12.5051 19.9611 13.5431C20.1635 13.8265 20.5572 13.8922 20.8406 13.6899C21.124 13.4876 21.1897 13.0938 20.9874 12.8104C20.4085 11.9996 20.0952 10.9482 19.931 9.90981C19.7679 8.87815 19.76 7.91593 19.7547 7.30445C19.7387 5.41714 19.2096 3.69207 18.0715 2.43151C16.9235 1.15999 15.2229 0.435755 13.0228 0.435753C10.8219 0.435753 9.12085 1.15993 7.97258 2.43147C6.83416 3.69209 6.3051 5.41729 6.28915 7.30468V7.30486C6.28288 8.07609 6.27125 9.40058 5.95522 10.7083C5.63689 12.0255 5.0391 13.2041 3.95369 13.8268C3.75777 13.9392 3.63696 14.1478 3.63696 14.3737C3.63697 15.0061 4.02333 15.565 4.37589 15.9432C4.74552 16.3396 5.20566 16.674 5.58383 16.8482Z" fill="#EDE8EB"/>
<path d="M3.38969 22.5619C3.73757 22.577 4.03184 22.3073 4.04699 21.9594C4.07961 21.2108 4.25779 20.2367 4.558 19.3296C4.86394 18.4051 5.26612 17.6437 5.69169 17.2399H5.69165C7.24986 15.7621 9.05613 15.2593 11.2468 14.9323C11.5912 14.8809 11.8287 14.5601 11.7773 14.2157C11.7259 13.8713 11.4051 13.6338 11.0607 13.6852C8.79048 14.024 6.66727 14.5767 4.82387 16.325L4.82377 16.3251C4.17048 16.9449 3.68775 17.9454 3.36081 18.9334C3.02812 19.9387 2.82543 21.0276 2.78723 21.9046C2.77208 22.2525 3.04181 22.5467 3.38969 22.5619ZM17.0016 15.4683C17.3241 15.5996 17.692 15.4445 17.8233 15.122C17.9545 14.7994 17.7994 14.4316 17.4769 14.3003C16.7469 14.0033 15.7061 13.8 14.989 13.6861C14.6451 13.6315 14.322 13.8659 14.2673 14.2098C14.2127 14.5537 14.4472 14.8768 14.7911 14.9314C15.5019 15.0444 16.4171 15.2305 17.0016 15.4683Z" fill="#EDE8EB"/>
<path d="M18.2243 22.5625L18.2405 22.5623C18.5812 22.5537 18.8547 22.2748 18.8547 21.932C18.8547 21.5892 18.5812 21.3104 18.2405 21.3017L18.2243 21.3015H16.5047L16.7591 20.1164C16.7991 19.9302 16.7527 19.7359 16.633 19.5878C16.5133 19.4397 16.3331 19.3536 16.1426 19.3536H12.1122C11.2266 19.3536 10.5073 20.0756 10.5073 20.9581C10.5073 21.8406 11.2267 22.5625 12.1122 22.5625H18.2243ZM11.7683 20.9581C11.7683 20.7709 11.9242 20.6146 12.1122 20.6146H15.3625L15.215 21.3015H12.1122C11.924 21.3015 11.7683 21.1451 11.7683 20.9581Z" fill="#EDE8EB"/>
<path d="M23.8847 17.5524C23.8847 17.5857 23.8694 17.651 23.776 17.7254C23.6813 17.8007 23.5264 17.864 23.3318 17.864C23.136 17.864 22.9806 17.8005 22.8858 17.7252C22.7923 17.6508 22.7771 17.5856 22.7771 17.5524C22.7771 17.5208 22.7916 17.456 22.8855 17.3815C22.9804 17.3062 23.1359 17.2426 23.3318 17.2426C23.5265 17.2426 23.6815 17.3059 23.7763 17.3813C23.8701 17.4558 23.8847 17.5207 23.8847 17.5524ZM25.1457 17.5524C25.1457 16.5581 24.191 15.9816 23.3318 15.9816C22.4716 15.9816 21.5161 16.5575 21.5161 17.5524C21.5161 18.5483 22.4706 19.125 23.3318 19.125C24.192 19.125 25.1457 18.5477 25.1457 17.5524Z" fill="#EDE8EB"/>
<path d="M10.8208 17.2043C12.0031 17.284 13.2188 16.6474 13.6273 15.2194C13.7231 14.8846 13.5294 14.5356 13.1946 14.4398C12.865 14.3455 12.5216 14.5318 12.4196 14.8569L12.415 14.8725L12.4041 14.9092C12.1698 15.6717 11.5574 15.9901 10.9057 15.9462C10.2217 15.9 9.53448 15.4496 9.28656 14.6473C9.18376 14.3146 8.83071 14.1283 8.49802 14.2311C8.16533 14.3339 7.97894 14.6869 8.08173 15.0196C8.49644 16.3617 9.66061 17.126 10.8208 17.2043Z" fill="#EDE8EB"/>
<path d="M16.1444 25.1406L16.1606 25.1404C16.5013 25.1318 16.7749 24.8529 16.7749 24.5101C16.7749 24.1674 16.5013 23.8885 16.1606 23.8799L16.1444 23.8797H16.1319C15.7837 23.8797 15.5015 24.1619 15.5015 24.5101C15.5015 24.8584 15.7837 25.1406 16.1319 25.1406H16.1444Z" fill="#EDE8EB"/>
</g>
</g>
<defs>
<clipPath id="clip0_20_2286">
<rect width="32" height="32" fill="white"/>
</clipPath>
</defs>
</svg>
