<svg width="40" height="40" viewBox="0 0 40 40" fill="none" xmlns="http://www.w3.org/2000/svg">
<g clip-path="url(#clip0_20_1912)">
<path d="M30 25.3125H16.25C15.6701 25.3132 15.1141 25.5439 14.704 25.954C14.2939 26.3641 14.0632 26.9201 14.0625 27.5V37.5C14.0632 38.0799 14.2939 38.6359 14.704 39.046C15.1141 39.4561 15.6701 39.6868 16.25 39.6875H30C30.5799 39.6868 31.1359 39.4561 31.546 39.046C31.9561 38.6359 32.1868 38.0799 32.1875 37.5V27.5C32.1868 26.9201 31.9561 26.3641 31.546 25.954C31.1359 25.5439 30.5799 25.3132 30 25.3125ZM28.75 35.9375C26.911 35.9375 26.2 35.3152 25.8124 34.567L25.7916 34.5901C25.5243 34.9716 25.1766 35.29 24.7731 35.5227C24.3695 35.7555 23.9199 35.8971 23.4558 35.9375C22.1698 35.9375 21.8381 34.567 21.5457 33.3575C21.149 31.7178 20.8383 30.9375 20.1471 30.9375C18.7277 30.9375 18.4375 34.1419 18.4375 35C18.4375 35.2486 18.3387 35.4871 18.1629 35.6629C17.9871 35.8387 17.7486 35.9375 17.5 35.9375C17.2514 35.9375 17.0129 35.8387 16.8371 35.6629C16.6613 35.4871 16.5625 35.2486 16.5625 35C16.5625 32.7948 17.3175 29.0625 20.1471 29.0625C22.4353 29.0625 22.9965 31.3818 23.3679 32.9166C23.4492 33.2846 23.5506 33.6479 23.6716 34.0048C23.9469 33.8252 24.1906 33.6011 24.3927 33.3417C24.8257 32.8565 25.4813 32.1231 26.4117 32.4481C26.6469 32.541 26.8578 32.6861 27.0285 32.8726C27.1992 33.0591 27.3252 33.282 27.3969 33.5245C27.5208 33.8367 27.6102 34.0625 28.75 34.0625C28.9986 34.0625 29.2371 34.1613 29.4129 34.3371C29.5887 34.5129 29.6875 34.7514 29.6875 35C29.6875 35.2486 29.5887 35.4871 29.4129 35.6629C29.2371 35.8387 28.9986 35.9375 28.75 35.9375Z" fill="#B189BA"/>
<path d="M3.125 39.6875H11.25C11.4986 39.6875 11.7371 39.5887 11.9129 39.4129C12.0887 39.2371 12.1875 38.9986 12.1875 38.75C12.1875 38.5014 12.0887 38.2629 11.9129 38.0871C11.7371 37.9113 11.4986 37.8125 11.25 37.8125H3.125C2.87644 37.8122 2.63814 37.7134 2.46239 37.5376C2.28663 37.3619 2.18777 37.1236 2.1875 36.875V3.125C2.18777 2.87644 2.28663 2.63814 2.46239 2.46239C2.63814 2.28663 2.87644 2.18777 3.125 2.1875H5.3125V8.75C5.31269 8.90974 5.35365 9.06679 5.43152 9.20626C5.50939 9.34574 5.62158 9.46303 5.75746 9.54701C5.89334 9.631 6.04841 9.6789 6.20798 9.68618C6.36756 9.69347 6.52635 9.65989 6.66931 9.58862L10 7.92328L13.3307 9.58862C13.4736 9.65992 13.6324 9.69353 13.792 9.68627C13.9516 9.679 14.1067 9.63111 14.2426 9.54711C14.3785 9.46312 14.4907 9.34582 14.5685 9.20632C14.6464 9.06682 14.6873 8.90975 14.6875 8.75V2.1875H22.8125V6.875C22.8133 7.62067 23.1099 8.33557 23.6372 8.86284C24.1644 9.39011 24.8793 9.68669 25.625 9.6875H30.3125V22.5C30.3125 22.7486 30.4113 22.9871 30.5871 23.1629C30.7629 23.3387 31.0014 23.4375 31.25 23.4375C31.4986 23.4375 31.7371 23.3387 31.9129 23.1629C32.0887 22.9871 32.1875 22.7486 32.1875 22.5V8.75C32.1845 8.5014 32.0857 8.26354 31.9117 8.08598L24.414 0.588344C24.2361 0.414865 23.9985 0.316151 23.75 0.3125H3.125C2.37933 0.313312 1.66443 0.609889 1.13716 1.13716C0.609889 1.66443 0.313312 2.37933 0.3125 3.125V36.875C0.313312 37.6207 0.609889 38.3356 1.13716 38.8628C1.66443 39.3901 2.37933 39.6867 3.125 39.6875ZM12.8125 7.23297L10.4193 6.03638C10.2891 5.97135 10.1455 5.9375 10 5.9375C9.85445 5.9375 9.7109 5.97135 9.58069 6.03638L7.1875 7.23297V2.1875H12.8125V7.23297ZM24.6875 6.875V3.51318L28.9868 7.8125H25.625C25.3764 7.81223 25.1381 7.71337 24.9624 7.53761C24.7866 7.36186 24.6878 7.12356 24.6875 6.875Z" fill="#1F0D19"/>
<path d="M37.5 4.0625H36.25C35.6701 4.0632 35.1141 4.29389 34.704 4.70398C34.2939 5.11406 34.0632 5.67005 34.0625 6.25V27.5C34.0626 27.7028 34.1283 27.9001 34.2499 28.0624L36.1249 30.5624C36.2123 30.6788 36.3255 30.7733 36.4557 30.8383C36.5859 30.9034 36.7295 30.9372 36.875 30.9372C37.0205 30.9372 37.1641 30.9034 37.2943 30.8383C37.4245 30.7733 37.5377 30.6788 37.6251 30.5624L39.5001 28.0624C39.6217 27.9001 39.6874 27.7028 39.6875 27.5V6.25C39.6868 5.67005 39.4561 5.11406 39.046 4.70398C38.6359 4.29389 38.0799 4.0632 37.5 4.0625ZM36.25 5.9375H37.5C37.5829 5.93756 37.6623 5.9705 37.7209 6.02909C37.7795 6.08768 37.8124 6.16714 37.8125 6.25V9.0625H35.9375V6.25C35.9376 6.16714 35.9705 6.08768 36.0291 6.02909C36.0877 5.9705 36.1671 5.93756 36.25 5.9375ZM36.875 28.4375L35.9375 27.1875V10.9375H37.8125V27.1875L36.875 28.4375Z" fill="#1F0D19"/>
<path d="M26.25 12.1875H6.25C6.00136 12.1875 5.7629 12.2863 5.58709 12.4621C5.41127 12.6379 5.3125 12.8764 5.3125 13.125C5.3125 13.3736 5.41127 13.6121 5.58709 13.7879C5.7629 13.9637 6.00136 14.0625 6.25 14.0625H26.25C26.4986 14.0625 26.7371 13.9637 26.9129 13.7879C27.0887 13.6121 27.1875 13.3736 27.1875 13.125C27.1875 12.8764 27.0887 12.6379 26.9129 12.4621C26.7371 12.2863 26.4986 12.1875 26.25 12.1875Z" fill="#1F0D19"/>
<path d="M27.1875 21.875C27.1875 21.7519 27.1633 21.63 27.1162 21.5162C27.0691 21.4025 27 21.2991 26.913 21.212C26.8259 21.125 26.7225 21.0559 26.6088 21.0088C26.495 20.9617 26.3731 20.9375 26.25 20.9375H6.25C6.00136 20.9375 5.7629 21.0363 5.58709 21.2121C5.41127 21.3879 5.3125 21.6264 5.3125 21.875C5.3125 22.1236 5.41127 22.3621 5.58709 22.5379C5.7629 22.7137 6.00136 22.8125 6.25 22.8125H26.25C26.3731 22.8125 26.495 22.7883 26.6088 22.7412C26.7225 22.6941 26.8259 22.625 26.913 22.538C27 22.4509 27.0691 22.3475 27.1162 22.2338C27.1633 22.12 27.1875 21.9981 27.1875 21.875Z" fill="#1F0D19"/>
<path d="M26.25 16.5625H6.25C6.00136 16.5625 5.7629 16.6613 5.58709 16.8371C5.41127 17.0129 5.3125 17.2514 5.3125 17.5C5.3125 17.7486 5.41127 17.9871 5.58709 18.1629C5.7629 18.3387 6.00136 18.4375 6.25 18.4375H26.25C26.4986 18.4375 26.7371 18.3387 26.9129 18.1629C27.0887 17.9871 27.1875 17.7486 27.1875 17.5C27.1875 17.2514 27.0887 17.0129 26.9129 16.8371C26.7371 16.6613 26.4986 16.5625 26.25 16.5625Z" fill="#1F0D19"/>
<path d="M6.25 34.6875H11.25C11.4986 34.6875 11.7371 34.5887 11.9129 34.4129C12.0887 34.2371 12.1875 33.9986 12.1875 33.75C12.1875 33.5014 12.0887 33.2629 11.9129 33.0871C11.7371 32.9113 11.4986 32.8125 11.25 32.8125H6.25C6.00136 32.8125 5.7629 32.9113 5.58709 33.0871C5.41127 33.2629 5.3125 33.5014 5.3125 33.75C5.3125 33.9986 5.41127 34.2371 5.58709 34.4129C5.7629 34.5887 6.00136 34.6875 6.25 34.6875Z" fill="#1F0D19"/>
<path d="M6.25 30.9375H11.25C11.4986 30.9375 11.7371 30.8387 11.9129 30.6629C12.0887 30.4871 12.1875 30.2486 12.1875 30C12.1875 29.7514 12.0887 29.5129 11.9129 29.3371C11.7371 29.1613 11.4986 29.0625 11.25 29.0625H6.25C6.00136 29.0625 5.7629 29.1613 5.58709 29.3371C5.41127 29.5129 5.3125 29.7514 5.3125 30C5.3125 30.2486 5.41127 30.4871 5.58709 30.6629C5.7629 30.8387 6.00136 30.9375 6.25 30.9375Z" fill="#1F0D19"/>
</g>
<defs>
<clipPath id="clip0_20_1912">
<rect width="40" height="40" fill="white"/>
</clipPath>
</defs>
</svg>
