<svg width="32" height="32" viewBox="0 0 32 32" fill="none" xmlns="http://www.w3.org/2000/svg">
<path d="M2.73975 28.9435C2.73975 26.3964 4.41591 24.1529 6.85852 23.4306L12.1093 21.8781H12.1093C12.5456 21.7491 12.8448 21.3484 12.8448 20.8935V20.4844C12.8448 20.1392 13.1247 19.8594 13.4698 19.8594C13.815 19.8594 14.0948 20.1392 14.0948 20.4844V20.8935C14.0948 21.9022 13.4311 22.7907 12.4637 23.0767L7.21295 24.6293C5.30146 25.1945 3.98975 26.9502 3.98975 28.9435V30.7492H5.85339L5.88556 30.75C6.21578 30.7668 6.47839 31.0398 6.47839 31.3742C6.47838 31.7086 6.21577 31.9816 5.88556 31.9984L5.85339 31.9992H3.36475C3.01957 31.9992 2.73976 31.7194 2.73975 31.3742V28.9435Z" fill="#EDE8EB"/>
<path d="M27.3215 28.9435C27.3215 26.9502 26.0098 25.1945 24.0983 24.6293L18.8475 23.0767C17.8802 22.7907 17.2164 21.9022 17.2164 20.8935V20.4844C17.2164 20.1392 17.4962 19.8594 17.8414 19.8594C18.1865 19.8594 18.4664 20.1392 18.4664 20.4844V20.8935C18.4664 21.3484 18.7657 21.7491 19.202 21.8781L24.4528 23.4306L24.5098 23.4478C26.9214 24.1879 28.5715 26.4162 28.5715 28.9435V31.3742C28.5715 31.7194 28.2917 31.9992 27.9465 31.9992H11.4785C11.1333 31.9992 10.8535 31.7194 10.8535 31.3742C10.8535 31.029 11.1333 30.7492 11.4785 30.7492H27.3215V28.9435Z" fill="#EDE8EB"/>
<path d="M17.6353 21.5815C17.8794 21.3374 18.2752 21.3374 18.5192 21.5815C18.7633 21.8256 18.7633 22.2213 18.5192 22.4654L16.0977 24.887C15.8536 25.131 15.4578 25.131 15.2138 24.887L12.7922 22.4654L12.77 22.4421C12.5484 22.1967 12.5557 21.8179 12.7922 21.5815C13.0286 21.345 13.4074 21.3377 13.6528 21.5593L13.6761 21.5815L15.6557 23.5611L17.6353 21.5815Z" fill="#EDE8EB"/>
<path d="M19.6508 22.6119C19.7746 22.2897 20.1361 22.1289 20.4583 22.2527C20.7805 22.3765 20.9414 22.7381 20.8176 23.0603L19.3345 26.9194C19.2648 27.1008 19.1148 27.2394 18.9285 27.2946C18.7422 27.3497 18.5409 27.3151 18.3838 27.2009L15.2882 24.9519L15.2627 24.9323C15.0053 24.7246 14.9534 24.3493 15.1499 24.0788C15.3465 23.8083 15.7194 23.7418 15.9964 23.9223L16.0229 23.9406L18.4597 25.711L19.6508 22.6119Z" fill="#EDE8EB"/>
<path d="M10.8529 22.2527C11.165 22.1328 11.5141 22.28 11.6482 22.5822L11.6605 22.6119L12.8514 25.7111L15.2883 23.9406L15.3148 23.9224C15.5918 23.7418 15.9648 23.8083 16.1613 24.0789C16.3642 24.3581 16.3023 24.749 16.023 24.9519L12.9274 27.2009C12.7702 27.3151 12.5689 27.3498 12.3827 27.2946C12.1964 27.2395 12.0463 27.1008 11.9767 26.9195L10.4936 23.0603L10.4829 23.03C10.3801 22.7157 10.5407 22.3726 10.8529 22.2527Z" fill="#EDE8EB"/>
<path d="M13.3418 31.3744V25.6595C13.3418 25.4584 13.4386 25.2695 13.6019 25.1521L15.2905 23.9379C15.5708 23.7364 15.9613 23.8002 16.1628 24.0805C16.3644 24.3607 16.3005 24.7513 16.0203 24.9528L14.5918 25.9799V31.3744C14.5918 31.7195 14.312 31.9994 13.9668 31.9994C13.6216 31.9994 13.3418 31.7195 13.3418 31.3744Z" fill="#EDE8EB"/>
<path d="M16.7191 31.3744V25.9799L15.2907 24.9528L15.2651 24.9334C15.0067 24.727 14.9529 24.352 15.1481 24.0805C15.3433 23.809 15.716 23.7406 15.9939 23.9198L16.0204 23.9379L17.709 25.1521C17.8723 25.2695 17.9691 25.4584 17.9691 25.6595V31.3744C17.9691 31.7196 17.6893 31.9994 17.3441 31.9994C16.9989 31.9994 16.7191 31.7196 16.7191 31.3744Z" fill="#EDE8EB"/>
<path d="M9.6709 15.5189V11.3906C9.6709 11.0454 9.95072 10.7656 10.2959 10.7656C10.6411 10.7656 10.9209 11.0454 10.9209 11.3906V15.5189C10.9209 18.1337 13.0406 20.2535 15.6555 20.2535C18.2704 20.2535 20.3901 18.1337 20.3901 15.5189V11.3906C20.3901 11.0455 20.67 10.7656 21.0151 10.7656C21.3603 10.7656 21.6401 11.0454 21.6401 11.3906V15.5189C21.6401 18.8241 18.9608 21.5035 15.6555 21.5035C12.3503 21.5035 9.6709 18.8241 9.6709 15.5189Z" fill="#EDE8EB"/>
<path d="M15.4127 0.0492936C15.5682 -0.0164328 15.7437 -0.0164297 15.8992 0.0492936L27.5042 4.95347C27.7356 5.05124 27.8859 5.278 27.8859 5.52915C27.8859 5.78032 27.7356 6.00712 27.5042 6.1049L21.9291 8.46091C21.6111 8.59528 21.2444 8.44647 21.11 8.12852C20.9757 7.81057 21.1246 7.44391 21.4425 7.30955L25.6553 5.52915L15.6559 1.30344L5.65662 5.52915L9.84955 7.30106C10.1675 7.43543 10.3164 7.80214 10.182 8.12009C10.0476 8.43804 9.68093 8.58686 9.36298 8.45249L3.80774 6.1049C3.57638 6.00713 3.42603 5.78032 3.42603 5.52915C3.42603 5.27799 3.57639 5.05124 3.80774 4.95347L15.4127 0.0492936Z" fill="#EDE8EB"/>
<path d="M15.4716 5.4027C15.5915 5.36577 15.7198 5.36577 15.8397 5.4027L21.8498 7.2542C22.1119 7.33497 22.2908 7.5772 22.2908 7.85149L22.2907 11.3011C22.2907 11.4987 22.1972 11.6847 22.0385 11.8027C21.8799 11.9206 21.6748 11.9565 21.4855 11.8995C21.017 11.7585 20.5208 11.6818 20.0061 11.6818C18.4568 11.6818 17.0693 12.3698 16.1285 13.4585C16.0098 13.5959 15.8372 13.6749 15.6556 13.6749C15.4741 13.6749 15.3015 13.5959 15.1827 13.4585C14.2419 12.3697 12.8544 11.6818 11.3051 11.6818C10.7904 11.6818 10.2942 11.7585 9.82562 11.8995C9.63635 11.9565 9.43128 11.9206 9.27264 11.8027C9.11401 11.6847 9.02052 11.4987 9.02051 11.3011V7.85149C9.02051 7.5772 9.19935 7.33496 9.46149 7.2542L15.4716 5.4027ZM10.2705 8.31292V10.5161C10.6072 10.4608 10.9528 10.4318 11.3051 10.4318C12.9878 10.4318 14.5174 11.0852 15.6556 12.1495C16.7938 11.0853 18.3233 10.4318 20.0061 10.4318C20.3584 10.4318 20.704 10.4607 21.0407 10.516V8.31292L15.6556 6.65392L10.2705 8.31292Z" fill="#EDE8EB"/>
<path d="M26.6355 9.42242V5.53125C26.6355 5.18607 26.9153 4.90625 27.2605 4.90625C27.6057 4.90625 27.8855 5.18607 27.8855 5.53125V9.42242C27.8855 9.7676 27.6057 10.0474 27.2605 10.0474C26.9153 10.0474 26.6355 9.7676 26.6355 9.42242Z" fill="#EDE8EB"/>
<path d="M28.0105 11.5C28.0105 11.0858 27.6747 10.75 27.2605 10.75C26.8463 10.75 26.5105 11.0858 26.5105 11.5V17.2004H28.0105V11.5ZM29.2605 17.8254C29.2605 18.1706 28.9807 18.4504 28.6355 18.4504H25.8855C25.5403 18.4504 25.2605 18.1706 25.2605 17.8254V11.5C25.2605 10.3954 26.1559 9.5 27.2605 9.5C28.3651 9.5 29.2605 10.3954 29.2605 11.5V17.8254Z" fill="#EDE8EB"/>
<path d="M28.6355 12.1875C28.9807 12.1875 29.2605 12.4673 29.2605 12.8125C29.2605 13.1577 28.9807 13.4375 28.6355 13.4375H25.8855C25.5403 13.4375 25.2605 13.1577 25.2605 12.8125C25.2605 12.4673 25.5403 12.1875 25.8855 12.1875H28.6355Z" fill="#EDE8EB"/>
<path d="M16.3564 16.3868C16.5656 16.1123 16.9578 16.0593 17.2324 16.2685C17.5069 16.4778 17.5599 16.87 17.3507 17.1445C16.9625 17.6539 16.3474 17.9844 15.6554 17.9844C14.9634 17.9844 14.3484 17.6538 13.9602 17.1445C13.751 16.87 13.8039 16.4778 14.0784 16.2686C14.353 16.0594 14.7451 16.1123 14.9544 16.3868C15.1163 16.5993 15.37 16.7344 15.6554 16.7344C15.9409 16.7344 16.1946 16.5992 16.3564 16.3868Z" fill="#EDE8EB"/>
<path d="M9.29077 31.375C9.29077 31.7202 9.01095 32 8.66577 32C8.32059 32 8.04077 31.7202 8.04077 31.375C8.04077 31.0298 8.32059 30.75 8.66577 30.75C9.01095 30.75 9.29077 31.0298 9.29077 31.375Z" fill="#EDE8EB"/>
</svg>
