<svg width="32" height="32" viewBox="0 0 32 32" fill="none" xmlns="http://www.w3.org/2000/svg">
<mask id="mask0_20_2326" style="mask-type:luminance" maskUnits="userSpaceOnUse" x="0" y="0" width="32" height="32">
<path d="M0 3.8147e-06H32V32H0V3.8147e-06Z" fill="white"/>
</mask>
<g mask="url(#mask0_20_2326)">
<path d="M7.8528 8.14406C7.8528 8.53558 7.88045 8.92101 7.93401 9.2984V9.29845C8.16476 10.9234 7.87954 12.5799 7.1239 14.0374L7.08755 14.1067C7.0875 14.1068 7.08743 14.1069 7.08737 14.107C6.56793 15.0853 6.59161 16.2627 7.15013 17.2193L7.15018 17.2194C7.72347 18.2011 8.77489 18.8047 9.91182 18.8047H11.9548C12.3 18.8047 12.5798 18.5249 12.5798 18.1797C12.5798 17.8345 12.3 17.5547 11.9548 17.5547H9.91182C9.21927 17.5547 8.57879 17.1871 8.22958 16.5891C7.88942 16.0065 7.87497 15.2894 8.19122 14.6935C8.19134 14.6933 8.19148 14.6931 8.19159 14.6929C9.09754 12.9868 9.44344 11.0369 9.17162 9.12271C9.1263 8.80337 9.10281 8.47665 9.10281 8.14406C9.10282 4.30267 12.2432 1.19473 16.0969 1.24758C16.833 1.25766 17.541 1.38461 18.2041 1.61026C18.5308 1.72147 18.8859 1.5467 18.9971 1.21993C19.1083 0.893156 18.9336 0.538105 18.6068 0.426897L18.533 0.402178C17.7692 0.150429 16.9564 0.0092392 16.114 -0.00230217C11.5623 -0.0647125 7.85281 3.60659 7.8528 8.14406Z" fill="#EDE8EB"/>
<path d="M22.0882 18.8047C23.2251 18.8047 24.2766 18.201 24.8498 17.2194L24.8498 17.2193C25.4083 16.2627 25.4321 15.0853 24.9125 14.1069C24.1332 12.6394 23.8206 10.9681 24.0602 9.33763L24.0704 9.26645C24.1196 8.91001 24.1456 8.54639 24.1471 8.17738V8.11229C24.1417 6.74623 23.7945 5.45414 23.187 4.32022C23.0239 4.01597 22.6451 3.90144 22.3409 4.06447C22.0366 4.22749 21.9221 4.6063 22.0852 4.91055C22.5993 5.87003 22.8925 6.96181 22.897 8.11732V8.17244C22.8958 8.4858 22.8737 8.79401 22.8321 9.09566L22.8235 9.1559C22.5432 11.0634 22.9108 13.0026 23.8085 14.6932C24.1201 15.2798 24.1109 15.9839 23.786 16.5616L23.7703 16.5891C23.4212 17.187 22.7807 17.5547 22.0882 17.5547H20.3379C19.9927 17.5547 19.7129 17.8345 19.7129 18.1797C19.7129 18.5249 19.9927 18.8047 20.3379 18.8047H22.0882Z" fill="#EDE8EB"/>
<path d="M27.3994 23.0074V30.75H4.6008V23.0074C4.60081 20.6846 6.48375 18.8017 8.8065 18.8017H11.955L11.9711 18.8015C12.3088 18.7929 12.5799 18.5165 12.5799 18.1767C12.5799 17.8369 12.3088 17.5605 11.9711 17.5519L11.955 17.5517H8.8065C5.79339 17.5517 3.35084 19.9943 3.35083 23.0074V31.375C3.35083 31.7202 3.63064 32 3.97581 32H28.0244C28.3696 32 28.6494 31.7202 28.6494 31.375V23.0074C28.6494 19.9943 26.2068 17.5517 23.1937 17.5517H20.3379C19.9928 17.5517 19.713 17.8315 19.713 18.1767C19.713 18.5219 19.9928 18.8017 20.3379 18.8017H23.1937C25.5164 18.8017 27.3993 20.6846 27.3994 23.0074Z" fill="#EDE8EB"/>
<path d="M13.1135 15.5161V17.6719C13.1135 18.0171 13.3933 18.2969 13.7385 18.2969C14.0837 18.2969 14.3635 18.0171 14.3635 17.6719V15.5161C14.3635 15.1709 14.0837 14.8911 13.7385 14.8911C13.3933 14.8911 13.1135 15.1709 13.1135 15.5161Z" fill="#EDE8EB"/>
<path d="M17.6367 15.51V17.8828C17.6367 18.228 17.9165 18.5078 18.2617 18.5078C18.6069 18.5078 18.8867 18.228 18.8867 17.8828V15.51C18.8867 15.1648 18.6069 14.8849 18.2617 14.8849C17.9165 14.8849 17.6367 15.1648 17.6367 15.51Z" fill="#EDE8EB"/>
<path d="M10.781 22.575C10.9697 22.7252 11.228 22.7534 11.4447 22.6474L16.4199 20.215C16.6135 20.1203 16.7447 19.9326 16.767 19.7182C16.7893 19.5039 16.6997 19.2932 16.5297 19.1606L12.7967 16.2496C12.6285 16.1185 12.405 16.0821 12.2039 16.1533C12.0028 16.2244 11.8519 16.3932 11.8036 16.601L10.5614 21.9444C10.5068 22.1793 10.5923 22.4248 10.781 22.575ZM12.7996 17.8371L14.9723 19.5313L12.0766 20.9471L12.7996 17.8371Z" fill="#EDE8EB"/>
<path d="M20.8459 22.6474C21.0626 22.7534 21.3209 22.7252 21.5096 22.575C21.6983 22.4247 21.7838 22.1793 21.7292 21.9444L20.487 16.601C20.4387 16.3932 20.2878 16.2244 20.0867 16.1533C19.8856 16.0821 19.6621 16.1184 19.4939 16.2496L15.7609 19.1606C15.591 19.2932 15.5013 19.5039 15.5236 19.7182C15.546 19.9326 15.6772 20.1203 15.8708 20.215L20.8459 22.6474ZM17.3183 19.5313L19.491 17.837L20.214 20.9471L17.3183 19.5313Z" fill="#EDE8EB"/>
<path d="M21.7762 32C21.9695 32 22.1519 31.9106 22.2702 31.7579C22.3886 31.6052 22.4297 31.4062 22.3815 31.2191L19.734 20.9425C19.6478 20.6083 19.307 20.4071 18.9728 20.4932C18.6385 20.5793 18.4374 20.9201 18.5235 21.2544L20.9698 30.75H18.2226L16.7801 20.3495C16.7326 20.0076 16.417 19.7688 16.0751 19.8163C15.7332 19.8637 15.4945 20.1793 15.5419 20.5212L17.0592 31.4609L17.0639 31.4896C17.1186 31.7841 17.376 32 17.6783 32H21.7762Z" fill="#EDE8EB"/>
<path d="M14.6436 32L14.6727 31.9994C14.9719 31.9856 15.2212 31.7603 15.2627 31.4609L16.78 20.5212L16.782 20.5052C16.8199 20.1695 16.5834 19.8629 16.2468 19.8163C15.9102 19.7696 15.5991 20.0002 15.5443 20.3335L15.5418 20.3495L14.0993 30.75H11.3521L13.7984 21.2544L13.8023 21.2387C13.8782 20.9095 13.6781 20.578 13.3491 20.4932C13.0201 20.4084 12.6847 20.6021 12.5922 20.927L12.5879 20.9425L9.94042 31.2191C9.89221 31.4062 9.93328 31.6052 10.0517 31.7579C10.17 31.9106 10.3524 32 10.5457 32H14.6436Z" fill="#EDE8EB"/>
<path d="M19.8947 11.16C19.8947 13.311 18.151 15.0547 16 15.0547C13.8491 15.0547 12.1054 13.311 12.1054 11.16V8.23468C12.5622 7.717 13.1005 7.27311 13.6999 6.923C15.0971 8.31864 17.0177 9.15821 19.1464 9.15822C19.3987 9.15822 19.6484 9.14605 19.8947 9.12233L19.8947 11.16ZM21.1447 8.40039C21.1447 8.21356 21.0612 8.03654 20.9169 7.91782C20.7727 7.79909 20.5828 7.75113 20.3995 7.78708C19.9946 7.86648 19.5757 7.9082 19.1464 7.9082C17.2041 7.9082 15.4804 7.08061 14.2966 5.73291C14.1101 5.52062 13.8043 5.45988 13.5509 5.58473C12.5614 6.0721 11.692 6.76476 10.998 7.6069C10.899 7.72692 10.8524 7.87283 10.8554 8.01701V11.16C10.8554 14.0013 13.1587 16.3047 16 16.3047C18.8414 16.3047 21.1447 14.0013 21.1447 11.16L21.1447 8.40039Z" fill="#EDE8EB"/>
</g>
</svg>
