<svg width="169" height="26" viewBox="0 0 169 26" fill="none" xmlns="http://www.w3.org/2000/svg">
<g clip-path="url(#clip0_25_24545)">
<path d="M34.0163 22.6953C32.383 22.6953 30.9066 22.2939 29.587 21.4875C28.264 20.6811 27.224 19.5854 26.467 18.1968C25.71 16.8082 25.3281 15.2605 25.3281 13.5537C25.3281 11.8469 25.7066 10.2702 26.467 8.8925C27.2274 7.51475 28.264 6.4263 29.587 5.6199C30.91 4.81712 32.383 4.41211 34.0163 4.41211C35.3018 4.41211 36.502 4.67609 37.6171 5.19681C38.7321 5.72115 39.68 6.46969 40.4608 7.44604L37.9785 10.1148C37.4943 9.50724 36.9146 9.04799 36.2361 8.74424C35.5575 8.44048 34.8176 8.2886 34.0129 8.2886C33.0718 8.2886 32.2364 8.5128 31.5135 8.96482C30.7906 9.41684 30.228 10.0316 29.8257 10.8127C29.4233 11.5937 29.2221 12.505 29.2221 13.5537C29.2221 14.6024 29.4233 15.4847 29.8257 16.2766C30.228 17.0686 30.7906 17.6905 31.5135 18.1426C32.2364 18.5946 33.0718 18.8188 34.0129 18.8188C34.8176 18.8188 35.5575 18.6669 36.2361 18.3631C36.9146 18.0594 37.4943 17.6001 37.9785 16.9926L40.4608 19.6613C39.68 20.6377 38.7321 21.3862 37.6171 21.9106C36.502 22.4349 35.3018 22.6953 34.0163 22.6953Z" fill="#F3F4F5"/>
<path d="M50.4197 22.6953C48.8103 22.6953 47.3509 22.2867 46.0415 21.4694C44.7322 20.6522 43.6922 19.5492 42.9215 18.1606C42.1509 16.7721 41.7656 15.2243 41.7656 13.5175C41.7656 11.8107 42.1509 10.2775 42.9215 8.91058C43.6922 7.5473 44.7322 6.45522 46.0415 5.63798C47.3509 4.82073 48.8103 4.41211 50.4197 4.41211C52.0291 4.41211 53.5226 4.8135 54.832 5.6199C56.1413 6.42268 57.1813 7.51475 57.952 8.8925C58.7226 10.2702 59.1079 11.8107 59.1079 13.5175C59.1079 15.2243 58.7226 16.7721 57.952 18.1606C57.1813 19.5492 56.1413 20.6522 54.832 21.4694C53.5226 22.2867 52.0496 22.6953 50.4197 22.6953ZM50.4197 18.8188C51.3608 18.8188 52.1962 18.5946 52.9191 18.1426C53.642 17.6905 54.2046 17.065 54.6069 16.2586C55.0093 15.4558 55.2105 14.5409 55.2105 13.5175C55.2105 12.4942 55.0025 11.5937 54.5899 10.8127C54.1773 10.0316 53.6113 9.41684 52.902 8.96482C52.1894 8.5128 51.3608 8.2886 50.4197 8.2886C49.4786 8.2886 48.6807 8.5128 47.9544 8.96482C47.2315 9.41684 46.6689 10.0316 46.2666 10.8127C45.8642 11.5937 45.663 12.4942 45.663 13.5175C45.663 14.5409 45.8642 15.4558 46.2666 16.2586C46.6689 17.0613 47.2315 17.6905 47.9544 18.1426C48.6773 18.5946 49.4991 18.8188 50.4197 18.8188Z" fill="#F3F4F5"/>
<path d="M69.0408 22.6946C67.6394 22.6946 66.3914 22.3655 65.3003 21.7074C64.2092 21.0493 63.3567 20.1416 62.7498 18.9844C62.1394 17.8273 61.8359 16.4929 61.8359 14.9814V4.78027H65.6276V14.797C65.6276 15.6504 65.7606 16.3772 66.0232 16.9739C66.2857 17.5705 66.6779 18.0298 67.1961 18.3444C67.7144 18.6626 68.3282 18.8181 69.0408 18.8181C70.1456 18.8181 70.9878 18.471 71.5743 17.7767C72.1608 17.0824 72.4541 16.0879 72.4541 14.797V4.78027H76.2458V14.9814C76.2458 16.5182 75.9423 17.8634 75.3319 19.0206C74.7216 20.1778 73.8794 21.0818 72.7985 21.7255C71.7175 22.3691 70.4661 22.6946 69.0408 22.6946Z" fill="#F3F4F5"/>
<path d="M83.862 4.78027H80.0703V22.3294H83.862V4.78027Z" fill="#F3F4F5"/>
<path d="M92.7266 4.78061H104.449V8.43652H92.7266V4.78061ZM96.6888 0.0253906H100.48V22.3333H96.6888V0.0253906Z" fill="#F3F4F5"/>
<path d="M119.969 22.6953C118.336 22.6953 116.86 22.2939 115.54 21.4875C114.217 20.6811 113.177 19.5854 112.42 18.1968C111.663 16.8082 111.281 15.2605 111.281 13.5537C111.281 11.8469 111.66 10.2702 112.42 8.8925C113.181 7.51475 114.217 6.4263 115.54 5.6199C116.863 4.81712 118.336 4.41211 119.969 4.41211C121.255 4.41211 122.455 4.67609 123.57 5.19681C124.685 5.72115 125.633 6.46969 126.414 7.44604L123.932 10.1148C123.447 9.50724 122.868 9.04799 122.189 8.74424C121.511 8.44048 120.771 8.2886 119.966 8.2886C119.025 8.2886 118.19 8.5128 117.467 8.96482C116.744 9.41684 116.181 10.0316 115.779 10.8127C115.376 11.5937 115.175 12.505 115.175 13.5537C115.175 14.6024 115.376 15.4847 115.779 16.2766C116.181 17.0686 116.744 17.6905 117.467 18.1426C118.19 18.5946 119.025 18.8188 119.966 18.8188C120.771 18.8188 121.511 18.6669 122.189 18.3631C122.868 18.0594 123.447 17.6001 123.932 16.9926L126.414 19.6613C125.633 20.6377 124.685 21.3862 123.57 21.9106C122.455 22.4349 121.255 22.6953 119.969 22.6953Z" fill="#F3F4F5"/>
<path d="M132.932 0.0253906H129.141V22.3333H132.932V0.0253906Z" fill="#F3F4F5"/>
<path d="M139.068 4.82758C138.424 4.82758 137.889 4.59615 137.466 4.13329C137.04 3.67042 136.828 3.09907 136.828 2.41562C136.828 1.73217 137.04 1.16082 137.466 0.69796C137.892 0.235095 138.424 0.00366211 139.068 0.00366211C139.713 0.00366211 140.275 0.235095 140.688 0.69796C141.101 1.16082 141.309 1.73579 141.309 2.41562C141.309 3.09546 141.101 3.67042 140.688 4.13329C140.275 4.59615 139.733 4.82758 139.068 4.82758ZM137.173 6.491H140.964V22.3297H137.173V6.491Z" fill="#F3F4F5"/>
<path d="M83.8605 15.9975L83.8639 8.37833H89.9231L89.9402 4.78027H83.3047" fill="#F3F4F5"/>
<path d="M0 9.44183C0 7.76033 0.368259 6.23793 1.10478 4.87465C1.84129 3.51137 2.84718 2.44099 4.11904 1.65991C5.3909 0.878824 6.80937 0.488281 8.37447 0.488281C9.93957 0.488281 11.3853 0.878824 12.647 1.65991C13.9086 2.44099 14.9077 3.51137 15.6442 4.87465C16.3807 6.23793 16.7489 7.75671 16.7489 9.44183C16.7489 10.769 16.5103 12.0057 16.0295 13.1556C15.5487 14.3055 14.8633 15.2819 13.97 16.0883L11.2387 13.8318C11.7979 13.3328 12.5003 12.436 12.7799 11.7381C13.0595 11.0402 13.1993 10.2735 13.1993 9.44545C13.1993 8.4727 12.9913 7.61568 12.5788 6.87076C12.1662 6.12583 11.6001 5.54364 10.8875 5.1314C10.1714 4.71554 9.33604 4.50942 8.37447 4.50942C7.41291 4.50942 6.60479 4.71554 5.8785 5.1314C5.15221 5.54364 4.58277 6.12583 4.17019 6.87076C3.7576 7.61568 3.5496 8.47632 3.5496 9.44545C3.5496 10.2735 3.68941 11.0365 3.96901 11.7381C4.24861 12.436 5.04651 13.4377 5.60571 13.9367L2.77899 16.0919C1.88562 15.2855 1.19684 14.3091 0.719468 13.1592C0.238686 12.0093 0 10.7726 0 9.44545" fill="#F3F4F5"/>
<path d="M8.40591 14.3381L0.515625 20.9086V25.9965L8.38886 19.6755L16.2825 26.0002V20.7929L8.40591 14.3381Z" fill="#F3F4F5"/>
<path d="M152.803 22.7997C151.16 22.7997 149.67 22.3947 148.336 21.5847C147.003 20.7747 145.956 19.6682 145.193 18.2687C144.429 16.8693 144.047 15.3071 144.047 13.5894C144.047 11.8718 144.429 10.2807 145.193 8.89209C145.956 7.50349 147.007 6.40419 148.336 5.59417C149.67 4.78416 151.156 4.37915 152.803 4.37915C154.099 4.37915 155.309 4.64313 156.435 5.17108C157.557 5.69904 158.515 6.45481 159.302 7.4384L157.096 10.4398C156.609 9.82505 155.729 9.05481 155.047 8.74744C154.365 8.44007 153.615 8.28819 152.807 8.28819C151.855 8.28819 151.017 8.51601 150.287 8.96802C149.557 9.42366 148.988 10.042 148.585 10.8303C148.18 11.615 147.978 12.5371 147.978 13.5931C147.978 14.649 148.18 15.5422 148.585 16.3377C148.991 17.1369 149.557 17.7625 150.287 18.2181C151.017 18.6737 151.855 18.8979 152.807 18.8979C153.618 18.8979 154.365 18.7461 155.047 18.4387C155.729 18.1313 156.711 17.2526 157.195 16.6378L159.302 19.7441C158.515 20.7277 157.56 21.4835 156.435 22.0114C155.309 22.5394 154.099 22.8034 152.803 22.8034" fill="#F3F4F5"/>
<path d="M157.594 13.5498L164.021 22.2285H169L162.818 13.5678L169 4.8855H163.909L157.594 13.5498Z" fill="#F3F4F5"/>
</g>
<defs>
<clipPath id="clip0_25_24545">
<rect width="169" height="26" fill="white"/>
</clipPath>
</defs>
</svg>
