<svg width="38" height="38" viewBox="0 0 38 38" fill="none" xmlns="http://www.w3.org/2000/svg">
<path d="M20.1724 17.0469H5.17236C5.0066 17.0469 4.84763 17.1127 4.73042 17.2299C4.61321 17.3471 4.54736 17.5061 4.54736 17.6719C4.54736 17.8376 4.61321 17.9966 4.73042 18.1138C4.84763 18.231 5.0066 18.2969 5.17236 18.2969H20.1724C20.3381 18.2969 20.4971 18.231 20.6143 18.1138C20.7315 17.9966 20.7974 17.8376 20.7974 17.6719C20.7974 17.5061 20.7315 17.3471 20.6143 17.2299C20.4971 17.1127 20.3381 17.0469 20.1724 17.0469Z" fill="#1F0D19"/>
<path d="M17.6724 35.7969H2.04741V7.04693H6.42241C6.50471 7.04774 6.58635 7.03212 6.66255 7.001C6.73874 6.96988 6.80796 6.92388 6.86616 6.86568C6.92436 6.80748 6.97037 6.73826 7.00149 6.66206C7.03261 6.58586 7.04822 6.50423 7.04741 6.42193V2.04693H28.2974V11.4219C28.2974 11.5877 28.3633 11.7467 28.4805 11.8639C28.5977 11.9811 28.7567 12.0469 28.9224 12.0469C29.0882 12.0469 29.2471 11.9811 29.3644 11.8639C29.4816 11.7467 29.5474 11.5877 29.5474 11.4219V1.42193C29.5482 1.33962 29.5326 1.25798 29.5015 1.18178C29.4704 1.10559 29.4244 1.03636 29.3662 0.978163C29.308 0.919963 29.2388 0.873956 29.1626 0.842836C29.0864 0.811716 29.0047 0.796108 28.9224 0.796925H6.42241C6.34043 0.795853 6.25914 0.811986 6.18378 0.844282C6.10842 0.876579 6.04067 0.924321 5.98491 0.984425L0.984913 5.98443C0.924812 6.04019 0.877073 6.10794 0.844777 6.1833C0.812481 6.25865 0.796345 6.33995 0.797413 6.42193V36.4219C0.796601 36.5042 0.812213 36.5859 0.843335 36.6621C0.874456 36.7383 0.920463 36.8075 0.978662 36.8657C1.03686 36.9239 1.10608 36.9699 1.18228 37.001C1.25847 37.0321 1.34011 37.0477 1.42241 37.0469H17.6724C17.8382 37.0469 17.9971 36.9811 18.1144 36.8639C18.2316 36.7467 18.2974 36.5877 18.2974 36.4219C18.2974 36.2562 18.2316 36.0972 18.1144 35.98C17.9971 35.8628 17.8382 35.7969 17.6724 35.7969Z" fill="#1F0D19"/>
<path d="M36.1349 32.9622C35.8446 32.6716 35.4997 32.4413 35.1199 32.2847C34.7402 32.128 34.3332 32.0482 33.9224 32.0497H32.6724V30.7997H33.2974C33.4632 30.7997 33.6221 30.7339 33.7393 30.6167C33.8565 30.4995 33.9224 30.3405 33.9224 30.1747C33.9224 30.009 33.8565 29.85 33.7393 29.7328C33.6221 29.6156 33.4632 29.5497 33.2974 29.5497H31.4224V22.5122C32.1868 21.98 32.7613 21.2177 33.0624 20.3363C33.3636 19.4549 33.3755 18.5004 33.0966 17.6118C32.8177 16.7231 32.2625 15.9466 31.5117 15.3954C30.7609 14.8441 29.8538 14.5469 28.9224 14.5469C27.991 14.5469 27.0839 14.8441 26.3331 15.3954C25.5823 15.9466 25.0271 16.7231 24.7482 17.6118C24.4692 18.5004 24.4812 19.4549 24.7823 20.3363C25.0835 21.2177 25.658 21.98 26.4224 22.5122V29.5497H24.5474C24.3816 29.5497 24.2227 29.6156 24.1055 29.7328C23.9882 29.85 23.9224 30.009 23.9224 30.1747C23.9224 30.3405 23.9882 30.4995 24.1055 30.6167C24.2227 30.7339 24.3816 30.7997 24.5474 30.7997H25.1724V32.0497H23.9224C23.5116 32.0482 23.1046 32.128 22.7249 32.2847C22.3451 32.4413 22.0002 32.6716 21.7099 32.9622C21.1297 33.5531 20.8025 34.3467 20.7974 35.1747V36.4247C20.7966 36.507 20.8122 36.5887 20.8433 36.6649C20.8744 36.7411 20.9204 36.8103 20.9786 36.8685C21.0368 36.9267 21.1061 36.9727 21.1823 37.0038C21.2585 37.0349 21.3401 37.0505 21.4224 37.0497H36.4224C36.5047 37.0505 36.5863 37.0349 36.6625 37.0038C36.7387 36.9727 36.8079 36.9267 36.8661 36.8685C36.9243 36.8103 36.9704 36.7411 37.0015 36.6649C37.0326 36.5887 37.0482 36.507 37.0474 36.4247V35.1747C37.0423 34.3467 36.715 33.5531 36.1349 32.9622ZM26.4224 30.7997H31.4224V32.0497H26.4224V30.7997Z" fill="#B189BA"/>
<path d="M17.8158 24.3335C17.8042 23.6919 17.5436 23.0799 17.0892 22.6267C16.6348 22.1736 16.0221 21.9148 15.3805 21.9049C15.1961 21.9046 15.0136 21.868 14.8434 21.7971C14.6732 21.7262 14.5187 21.6224 14.3887 21.4917C13.9205 21.0592 13.3063 20.8194 12.669 20.8203C12.0316 20.8212 11.4181 21.0628 10.9512 21.4966C10.6884 21.7585 10.3328 21.9059 9.96179 21.9067H9.95691C9.31545 21.9177 8.70341 22.1778 8.25027 22.6319C7.79714 23.0861 7.53844 23.6987 7.52893 24.3402C7.52859 24.5247 7.49187 24.7073 7.42086 24.8776C7.34985 25.0479 7.24595 25.2025 7.11511 25.3326C6.66985 25.7944 6.42145 26.4112 6.42237 27.0527C6.42328 27.6942 6.67343 28.3102 7.12 28.7707C7.25026 28.9012 7.35349 29.056 7.42377 29.2264C7.49405 29.3968 7.52999 29.5795 7.52954 29.7638C7.54073 30.4055 7.80101 31.0177 8.25535 31.471C8.70969 31.9244 9.3225 32.1832 9.96424 32.193C10.1486 32.1933 10.3311 32.2299 10.5013 32.3008C10.6715 32.3717 10.826 32.4755 10.9561 32.6062C11.4177 33.0515 12.0344 33.2999 12.6758 33.2989C13.3172 33.298 13.9331 33.0479 14.3936 32.6013C14.6577 32.3385 15.0152 32.191 15.3878 32.1912C16.0293 32.1802 16.6413 31.9201 17.0945 31.466C17.5476 31.0118 17.8063 30.3992 17.8158 29.7577C17.8161 29.5732 17.8528 29.3906 17.9238 29.2203C17.9948 29.05 18.0987 28.8954 18.2296 28.7653C18.6748 28.3035 18.9232 27.6867 18.9223 27.0452C18.9214 26.4037 18.6712 25.7877 18.2247 25.3272C18.0943 25.1967 17.9911 25.0417 17.9209 24.8712C17.8508 24.7007 17.815 24.5179 17.8158 24.3335ZM17.3379 27.8894C16.8454 28.382 16.5678 29.0495 16.5658 29.7461C16.5594 30.0602 16.4322 30.3598 16.2104 30.5824C15.9887 30.805 15.6897 30.9335 15.3756 30.9412C14.6796 30.943 14.0124 31.2188 13.5183 31.709C13.2864 31.9161 12.9866 32.0309 12.6757 32.0318C12.3648 32.0327 12.0644 31.9196 11.8313 31.7139C11.3391 31.2221 10.6723 30.945 9.97644 30.943C9.66217 30.9366 9.36246 30.8093 9.13956 30.5877C8.91667 30.366 8.78773 30.067 8.77954 29.7528C8.77931 29.0567 8.50349 28.3889 8.01236 27.8955C7.79514 27.6687 7.67343 27.3671 7.67241 27.0531C7.67138 26.7391 7.79114 26.4367 8.00688 26.2085C8.49941 25.7159 8.77699 25.0484 8.77896 24.3518C8.78533 24.037 8.9132 23.7368 9.13582 23.514C9.35845 23.2913 9.65858 23.1633 9.97342 23.1567C10.6679 23.1538 11.3334 22.878 11.8264 22.3889C12.0583 22.1818 12.3581 22.0669 12.669 22.066C12.9799 22.0651 13.2804 22.1783 13.5135 22.384C14.0057 22.8758 14.6725 23.1529 15.3683 23.1549C15.6824 23.1615 15.9819 23.2886 16.2049 23.5099C16.4278 23.7312 16.557 24.0298 16.5658 24.3439C16.5651 25.0405 16.8408 25.7089 17.3324 26.2024C17.5496 26.4292 17.6714 26.7308 17.6724 27.0448C17.6734 27.3588 17.5536 27.6612 17.3379 27.8894Z" fill="#1F0D19"/>
<path d="M5.17236 13.2969C5.0066 13.2969 4.84763 13.3627 4.73042 13.4799C4.61321 13.5971 4.54736 13.7561 4.54736 13.9219C4.54736 14.0876 4.61321 14.2466 4.73042 14.3638C4.84763 14.481 5.0066 14.5469 5.17236 14.5469H20.1724C20.3381 14.5469 20.4971 14.481 20.6143 14.3638C20.7315 14.2466 20.7974 14.0876 20.7974 13.9219C20.7974 13.7561 20.7315 13.5971 20.6143 13.4799C20.4971 13.3627 20.3381 13.2969 20.1724 13.2969H5.17236Z" fill="#1F0D19"/>
<path d="M25.7974 10.1719C25.7974 10.0898 25.7813 10.0085 25.7499 9.93264C25.7185 9.85679 25.6725 9.78787 25.6144 9.72983C25.5564 9.67178 25.4874 9.62575 25.4116 9.59435C25.3357 9.56296 25.2545 9.54683 25.1724 9.54688H5.17236C5.0066 9.54688 4.84763 9.61272 4.73042 9.72993C4.61321 9.84714 4.54736 10.0061 4.54736 10.1719C4.54736 10.3376 4.61321 10.4966 4.73042 10.6138C4.84763 10.731 5.0066 10.7969 5.17236 10.7969H25.1724C25.2545 10.7969 25.3357 10.7808 25.4116 10.7494C25.4874 10.718 25.5564 10.672 25.6144 10.6139C25.6725 10.5559 25.7185 10.487 25.7499 10.4111C25.7813 10.3353 25.7974 10.254 25.7974 10.1719Z" fill="#1F0D19"/>
<path d="M25.1724 5.79688H10.1724C10.0066 5.79688 9.84763 5.86272 9.73042 5.97993C9.61321 6.09714 9.54736 6.25611 9.54736 6.42188C9.54736 6.58764 9.61321 6.74661 9.73042 6.86382C9.84763 6.98103 10.0066 7.04688 10.1724 7.04688H25.1724C25.3381 7.04688 25.4971 6.98103 25.6143 6.86382C25.7315 6.74661 25.7974 6.58764 25.7974 6.42188C25.7974 6.25611 25.7315 6.09714 25.6143 5.97993C25.4971 5.86272 25.3381 5.79688 25.1724 5.79688Z" fill="#1F0D19"/>
</svg>
