<svg width="127" height="37" viewBox="0 0 127 37" fill="none" xmlns="http://www.w3.org/2000/svg">
<path d="M-0.00012207 18.4951C-0.00012207 8.28056 8.28044 0 18.495 0H108.505C118.719 0 127 8.28056 127 18.4951C127 28.7097 118.719 36.9903 108.505 36.9903H18.495C8.28043 36.9903 -0.00012207 28.7097 -0.00012207 18.4951Z" fill="#1F0D19"/>
<path d="M33.1168 18.5456C33.0946 15.8974 35.1545 14.6086 35.2483 14.5491C34.0816 12.7392 32.273 12.4912 31.6376 12.4718C30.1181 12.3013 28.6454 13.439 27.872 13.439C27.0985 13.439 25.8915 12.4884 24.6063 12.5161C22.954 12.5438 21.4084 13.561 20.5594 15.1422C18.8094 18.3655 20.1141 23.1021 21.7912 25.7073C22.6298 26.9836 23.6102 28.4082 24.8928 28.3583C26.148 28.3043 26.6167 27.5075 28.1311 27.5075C29.6454 27.5075 30.0712 28.3583 31.3798 28.3265C32.7261 28.3043 33.5751 27.0446 34.3837 25.7572C35.3524 24.2952 35.7418 22.854 35.7574 22.7806C35.7261 22.7695 33.1428 21.7191 33.1168 18.5456ZM30.6454 10.7576C31.3199 9.85958 31.7821 8.63732 31.6545 7.39844C30.678 7.44417 29.4566 8.11766 28.7522 8.99624C28.1298 9.77089 27.5738 11.0389 27.717 12.232C28.8147 12.3193 29.941 11.6431 30.6454 10.7589V10.7576Z" fill="#F9F9F9"/>
<path d="M52.1903 27.7966H50.3638L49.3631 24.7487H45.8864L44.9331 27.7966H43.1554L46.601 17.4221H48.7285L52.1903 27.7966ZM49.0621 23.4706L48.1576 20.7619C48.0614 20.4858 47.8824 19.8336 47.6179 18.808H47.5854C47.4796 19.2498 47.3101 19.9007 47.0769 20.7619L46.1874 23.4706H49.0621ZM61.0354 23.9637C61.0354 25.2365 60.6788 26.2411 59.9656 26.98C59.3269 27.6375 58.5336 27.9649 57.5872 27.9649C56.5648 27.9649 55.8298 27.6112 55.3837 26.9038V30.8287H53.6697V22.7724C53.6697 21.9729 53.648 21.1538 53.606 20.3135H55.1138L55.2101 21.4996H55.2427C55.8149 20.6068 56.6827 20.1597 57.8462 20.1597C58.756 20.1597 59.5167 20.5081 60.1242 21.2064C60.7317 21.9059 61.0368 22.8237 61.0368 23.9637H61.0354ZM59.2889 24.0242C59.2889 23.2957 59.1194 22.6961 58.7804 22.2228C58.4103 21.731 57.9112 21.4851 57.2875 21.4851C56.8644 21.4851 56.4807 21.6219 56.1363 21.8927C55.7918 22.1662 55.5667 22.5212 55.461 22.963C55.4135 23.1287 55.3878 23.2983 55.381 23.4693V24.7171C55.381 25.2602 55.5532 25.7191 55.8976 26.0951C56.242 26.4699 56.6895 26.6566 57.2387 26.6566C57.8841 26.6566 58.3872 26.4146 58.7465 25.9334C59.1072 25.4508 59.2876 24.8144 59.2876 24.0242H59.2889ZM69.9117 23.9637C69.9117 25.2365 69.5551 26.2411 68.8419 26.98C68.2032 27.6375 67.4099 27.9649 66.4621 27.9649C65.4397 27.9649 64.7047 27.6112 64.2586 26.9038V30.8287H62.5447V22.7724C62.5447 21.9729 62.523 21.1538 62.4809 20.3135H63.9888L64.0851 21.4996H64.1176C64.6885 20.6068 65.5563 20.1597 66.7211 20.1597C67.631 20.1597 68.3903 20.5081 69.0005 21.2064C69.6066 21.9059 69.9131 22.8237 69.9131 23.9637H69.9117ZM68.1639 24.0242C68.1639 23.2957 67.9944 22.6961 67.6554 22.2228C67.2852 21.731 66.7889 21.4851 66.1638 21.4851C65.7407 21.4851 65.357 21.6219 65.0112 21.8927C64.6668 22.1662 64.443 22.5212 64.3373 22.963C64.2844 23.1695 64.2573 23.3365 64.2573 23.4693V24.7171C64.2573 25.2602 64.4308 25.7191 64.7725 26.0951C65.117 26.4686 65.5644 26.6566 66.115 26.6566C66.7618 26.6566 67.2635 26.4146 67.6228 25.9334C67.9835 25.4508 68.1639 24.8144 68.1639 24.0242ZM79.8349 24.8854C79.8349 25.769 79.5162 26.487 78.8829 27.0405C78.186 27.6454 77.2137 27.9491 75.9676 27.9491C74.8163 27.9491 73.8929 27.7335 73.1959 27.3022L73.5919 25.9163C74.3445 26.3476 75.1703 26.5632 76.0693 26.5632C76.7161 26.5632 77.2178 26.4212 77.5771 26.1398C77.9365 25.8571 78.1182 25.4798 78.1182 25.009C78.1182 24.5869 77.9677 24.2345 77.6721 23.9466C77.3751 23.6599 76.8842 23.3917 76.1954 23.1471C74.3214 22.47 73.3844 21.4785 73.3844 20.1755C73.3844 19.3247 73.7153 18.6265 74.377 18.0822C75.0387 17.5378 75.9147 17.2656 77.0049 17.2656C77.9785 17.2656 78.7907 17.43 79.4348 17.7587L79.005 19.113C78.3989 18.7948 77.7141 18.6357 76.9493 18.6357C76.3445 18.6357 75.8699 18.7804 75.5309 19.067C75.2448 19.3234 75.1011 19.6364 75.1011 20.0072C75.1011 20.4161 75.2665 20.7567 75.5947 21.0236C75.8794 21.2695 76.3988 21.5364 77.15 21.823C78.0721 22.1833 78.7487 22.6028 79.1826 23.084C79.6193 23.5653 79.8362 24.1675 79.8362 24.8828L79.8349 24.8854ZM85.5178 21.5614H83.6275V25.1931C83.6275 26.1175 83.9611 26.5777 84.6283 26.5777C84.9347 26.5777 85.1883 26.5527 85.3903 26.5001L85.4378 27.7624C85.1002 27.8847 84.6554 27.9465 84.1049 27.9465C83.4282 27.9465 82.898 27.7466 82.517 27.3456C82.136 26.9445 81.9448 26.2739 81.9448 25.3285V21.5574H80.8193V20.3096H81.9448V18.9395L83.6289 18.4464V20.3083H85.5191V21.5587L85.5178 21.5614ZM94.028 23.9926C94.028 25.1431 93.689 26.0872 93.011 26.8249C92.3032 27.5849 91.3594 27.9636 90.1851 27.9636C89.0108 27.9636 88.1498 27.5994 87.4772 26.8722C86.8046 26.1438 86.4683 25.2247 86.4683 24.1175C86.4683 23.0104 86.8155 22.0084 87.5084 21.2708C88.2026 20.5318 89.1369 20.1623 90.3112 20.1623C91.4855 20.1623 92.3533 20.5266 93.0408 21.255C93.6985 21.9611 94.0266 22.8736 94.0266 23.9926H94.028ZM92.2503 24.0307C92.2503 23.3457 92.097 22.7579 91.7906 22.2662C91.4313 21.6718 90.916 21.3747 90.2502 21.3747C89.5844 21.3747 89.0366 21.6718 88.6786 22.2662C88.3708 22.7579 88.2189 23.3562 88.2189 24.0623C88.2189 24.7684 88.3721 25.3377 88.6786 25.8282C89.0488 26.4225 89.5668 26.7197 90.2366 26.7197C90.9065 26.7197 91.4055 26.416 91.777 25.8137C92.0916 25.3101 92.2503 24.7184 92.2503 24.0321V24.0307ZM99.6024 21.7757C99.4234 21.7441 99.2431 21.7297 99.0614 21.7297C98.458 21.7297 97.9915 21.9493 97.6634 22.3924C97.3786 22.7816 97.2349 23.2747 97.2349 23.8703V27.7953H95.5209V22.6698C95.5223 21.8848 95.506 21.0998 95.4707 20.3149H96.9637L97.0261 21.7468H97.0735C97.2552 21.255 97.54 20.8579 97.9305 20.5607C98.2885 20.3017 98.7224 20.161 99.1699 20.1597C99.3285 20.1597 99.4709 20.1702 99.5984 20.1899V21.7757H99.5997H99.6024ZM107.271 23.7007C107.275 23.9532 107.254 24.2056 107.208 24.4541H102.065C102.084 25.1931 102.333 25.7598 102.811 26.149C103.245 26.4962 103.805 26.671 104.493 26.671C105.256 26.671 105.95 26.554 106.575 26.3173L106.843 27.4705C106.113 27.7795 105.251 27.9333 104.256 27.9333C103.06 27.9333 102.121 27.5915 101.437 26.9104C100.755 26.2279 100.413 25.3114 100.413 24.1635C100.413 23.0156 100.731 22.0965 101.367 21.347C102.032 20.5476 102.933 20.1479 104.065 20.1479C105.197 20.1479 106.019 20.5476 106.591 21.347C107.044 21.9808 107.272 22.7671 107.272 23.6994L107.271 23.7007ZM105.635 23.2694C105.647 22.7763 105.535 22.3516 105.302 21.9913C105.005 21.5285 104.548 21.2971 103.936 21.2971C103.376 21.2971 102.919 21.5219 102.572 21.9743C102.286 22.3332 102.116 22.7658 102.065 23.2668H105.635V23.2681V23.2694Z" fill="#F9F9F9"/>
<path d="M45.6068 13.5303C45.1349 13.5303 44.7273 13.5101 44.3881 13.4756V8.93511C44.8627 8.86966 45.3427 8.83752 45.8227 8.83871C47.7667 8.83871 48.6624 9.6873 48.6624 11.0715C48.6624 12.6675 47.6045 13.5303 45.6068 13.5303ZM45.891 9.4207C45.6283 9.4207 45.4057 9.43498 45.2193 9.46831V12.9198C45.3199 12.9341 45.5116 12.94 45.7824 12.94C47.0562 12.94 47.7815 12.2961 47.7815 11.0917C47.7815 10.017 47.1259 9.4207 45.891 9.4207ZM51.4525 13.5649C50.3571 13.5649 49.6465 12.8389 49.6465 11.8534C49.6465 10.8679 50.3718 10.0931 51.5141 10.0931C52.5934 10.0931 53.3201 10.7846 53.3201 11.7986C53.3201 12.8127 52.572 13.5649 51.4525 13.5649ZM51.4846 10.6335C50.8827 10.6335 50.4965 11.1333 50.4965 11.832C50.4965 12.5306 50.8907 13.0174 51.4766 13.0174C52.0625 13.0174 52.4567 12.483 52.4567 11.8189C52.4567 11.1548 52.0706 10.6347 51.4846 10.6347V10.6335ZM59.5694 10.161L58.3962 13.4887H57.632L57.1466 12.0438C57.026 11.6903 56.9254 11.3321 56.845 10.9691H56.8289C56.7672 11.3321 56.6519 11.6951 56.5286 12.0438L56.0124 13.4887H55.2401L54.1367 10.161H54.9934L55.4184 11.7427C55.519 12.12 55.6034 12.4747 55.6732 12.8115H55.6892C55.7509 12.5318 55.8501 12.1819 55.9976 11.7499L56.5299 10.161H57.2083L57.7178 11.7153C57.8411 12.0926 57.9417 12.4616 58.0195 12.8115H58.0423C58.0959 12.4687 58.1817 12.1057 58.297 11.7153L58.7529 10.161H59.5707H59.5694ZM63.8866 13.4887H63.0526V11.5773C63.0526 10.9893 62.7979 10.6942 62.2965 10.6942C61.795 10.6942 61.4625 11.0715 61.4625 11.5094V13.4887H60.6286V11.1119C60.6286 10.818 60.6205 10.5026 60.5977 10.1598H61.3311L61.37 10.6739H61.3928C61.6167 10.3181 62.0712 10.092 62.582 10.092C63.3691 10.092 63.8866 10.6263 63.8866 11.4952V13.4875V13.4887ZM66.1846 13.4887H65.3507V8.634H66.1846V13.4887ZM69.2228 13.5637C68.1274 13.5637 67.4168 12.8377 67.4168 11.8522C67.4168 10.8668 68.1421 10.092 69.2844 10.092C70.3651 10.092 71.0904 10.7834 71.0904 11.7975C71.0904 12.8377 70.3423 13.5637 69.2228 13.5637ZM69.2536 10.6323C68.6516 10.6323 68.2655 11.1322 68.2655 11.8308C68.2655 12.5294 68.6597 13.0162 69.2442 13.0162C69.8288 13.0162 70.2243 12.4818 70.2243 11.8177C70.2243 11.1405 69.8409 10.6335 69.2536 10.6335V10.6323ZM74.3753 13.4887L74.3149 13.1054H74.2921C74.0374 13.4137 73.666 13.5637 73.1954 13.5637C72.5237 13.5637 72.0464 13.1459 72.0464 12.5842C72.0464 11.7629 72.8482 11.3381 74.2385 11.3381V11.2762C74.2385 10.8382 73.9771 10.618 73.4595 10.618C73.0895 10.618 72.765 10.7001 72.4795 10.8656L72.3105 10.3788C72.6578 10.1872 73.0895 10.0908 73.5976 10.0908C74.5777 10.0908 75.0725 10.549 75.0725 11.4678V12.6937C75.0725 13.0293 75.0885 13.2899 75.1261 13.4887H74.3753ZM74.2613 11.8308C73.3362 11.8308 72.871 12.0295 72.871 12.502C72.871 12.8508 73.1109 13.0221 73.4421 13.0221C73.8658 13.0221 74.26 12.7353 74.26 12.3449V11.8308H74.2613ZM79.1202 13.4887L79.0813 12.9543H79.0585C78.8185 13.3578 78.4163 13.5637 77.8545 13.5637C76.9509 13.5637 76.2805 12.8579 76.2805 11.8653C76.2805 10.8727 76.975 10.0908 77.9229 10.0908C78.4243 10.0908 78.7796 10.2407 78.9807 10.543H78.9968V8.63281H79.8308V12.5913C79.8308 12.9126 79.8402 13.2149 79.8616 13.4887H79.1202ZM78.9968 11.5309C78.9968 11.0655 78.6496 10.668 78.1186 10.668C77.5006 10.668 77.1225 11.1548 77.1225 11.8391C77.1225 12.5235 77.514 12.9698 78.1012 12.9698C78.6254 12.9698 78.9955 12.5651 78.9955 12.0867V11.5321L78.9968 11.5309ZM85.12 13.5649C84.0247 13.5649 83.3154 12.8389 83.3154 11.8534C83.3154 10.8679 84.0407 10.0931 85.1831 10.0931C86.2637 10.0931 86.9891 10.7846 86.9891 11.7986C86.9891 12.8389 86.2422 13.5649 85.1214 13.5649H85.12ZM85.1509 10.6335C84.5502 10.6335 84.1641 11.1333 84.1641 11.832C84.1641 12.5306 84.5583 13.0174 85.1428 13.0174C85.7274 13.0174 86.1229 12.483 86.1229 11.8189C86.1243 11.1417 85.7395 10.6347 85.1509 10.6347V10.6335ZM91.4698 13.4899H90.6359V11.5785C90.6359 10.9905 90.3811 10.6954 89.8797 10.6954C89.3783 10.6954 89.0471 11.0726 89.0471 11.5106V13.4899H88.2131V11.1131C88.2131 10.8191 88.2051 10.5038 88.1823 10.161H88.9157L88.9546 10.6751H88.9774C89.2013 10.3193 89.6558 10.0931 90.1653 10.0931C90.9523 10.0931 91.4698 10.6275 91.4698 11.4963V13.4899ZM97.0769 10.7168H96.1598V12.333C96.1598 12.7448 96.3207 12.9495 96.6451 12.9495C96.7926 12.9495 96.916 12.9353 97.0152 12.915L97.038 13.4768C96.8771 13.5315 96.6599 13.5589 96.3917 13.5589C95.7348 13.5589 95.3419 13.2376 95.3419 12.3949V10.7168H94.7949V10.1622H95.3419V9.55281L96.1598 9.33382V10.1622H97.0769V10.718V10.7168ZM101.488 13.4899H100.655V11.5927C100.655 10.9977 100.402 10.6954 99.8991 10.6954C99.4674 10.6954 99.0652 10.956 99.0652 11.4833V13.4899H98.2326V8.63519H99.0652V10.6347H99.0813C99.3441 10.2717 99.7235 10.0931 100.209 10.0931C101.003 10.0931 101.488 10.6406 101.488 11.5106V13.4899ZM106.008 12.0034H103.507C103.523 12.633 103.992 12.9888 104.688 12.9888C105.058 12.9888 105.399 12.9341 105.699 12.8317L105.829 13.3459C105.474 13.4827 105.057 13.5518 104.572 13.5518C103.398 13.5518 102.704 12.8936 102.704 11.8748C102.704 10.856 103.415 10.0872 104.478 10.0872C105.436 10.0872 106.037 10.7168 106.037 11.6689C106.042 11.7808 106.033 11.8939 106.009 12.0045L106.008 12.0034ZM105.243 11.4761C105.243 10.962 104.951 10.6002 104.419 10.6002C103.94 10.6002 103.562 10.9703 103.507 11.4761H105.243Z" fill="#F9F9F9"/>
</svg>
