<svg width="32" height="32" viewBox="0 0 32 32" fill="none" xmlns="http://www.w3.org/2000/svg">
<path d="M7.43536 27.0737C7.43535 26.7339 7.16019 26.4587 6.82037 26.4587H4.97473C4.8629 26.4587 4.75957 26.4882 4.67023 26.5393C4.4768 26.65 4.23907 26.6493 4.04626 26.5375C3.85346 26.4257 3.73475 26.2198 3.73474 25.9969V23.1613C3.73474 21.4049 4.33485 20.0702 5.32812 19.0594C6.30227 18.0682 7.62003 17.4231 9.00757 16.9536L9.02148 16.9491L13.0677 15.6847L13.0858 15.6794C13.2324 15.6383 13.3877 15.6526 13.5231 15.7172C13.5706 15.7395 13.615 15.7675 13.6551 15.8006L13.6553 15.8008C13.6555 15.8009 13.6558 15.8012 13.6561 15.8014C13.6568 15.802 13.6577 15.8027 13.6588 15.8036C13.6635 15.8074 13.6708 15.8133 13.6807 15.8213C13.7006 15.8372 13.7298 15.8608 13.7673 15.8909C13.8422 15.9511 13.9494 16.0371 14.078 16.1404C14.3353 16.3469 14.6783 16.6221 15.0214 16.8973C15.3645 17.1725 15.7076 17.4477 15.965 17.6541C15.9777 17.6643 15.9902 17.6743 16.0025 17.6842L18.3217 15.8212C18.3384 15.8059 18.3559 15.7913 18.3744 15.7778C18.5345 15.66 18.7412 15.6254 18.9309 15.6846L22.9834 16.949L22.9988 16.954C23.5684 17.1481 24.1385 17.3735 24.6915 17.6527C24.9996 17.8083 25.1232 18.1842 24.9677 18.4923C24.8121 18.8004 24.4362 18.9241 24.1281 18.7685C23.6435 18.5239 23.1331 18.3206 22.6039 18.14L18.8782 16.9775L16.3943 18.9729C16.1658 19.1564 15.8405 19.1565 15.6119 18.9732L16.0029 18.4856L15.6118 18.9732L15.6118 18.9731C15.6117 18.973 15.6115 18.973 15.6114 18.9728C15.6111 18.9726 15.6105 18.9721 15.6099 18.9716C15.6085 18.9706 15.6066 18.969 15.604 18.9669C15.5988 18.9627 15.5911 18.9565 15.5811 18.9485C15.5609 18.9324 15.5314 18.9087 15.4939 18.8786C15.4188 18.8184 15.3116 18.7324 15.1829 18.6292C14.9256 18.4228 14.5825 18.1476 14.2393 17.8724C13.8962 17.5971 13.553 17.3218 13.2956 17.1152C13.2326 17.0647 13.1748 17.0183 13.1233 16.9769L9.40271 18.1395C8.09951 18.5809 6.99522 19.1464 6.21967 19.9355C5.46216 20.7064 4.98474 21.7239 4.98474 23.1613V25.2087H6.82037C7.85054 25.2087 8.68535 26.0436 8.68536 27.0737V27.8394H23.2747V27.0737C23.2747 26.0436 24.1096 25.2087 25.1398 25.2087H26.9854C26.9968 25.2087 27.0083 25.2088 27.0197 25.209V23.1613C27.0197 22.9715 27.0099 22.776 26.992 22.5846L26.9839 22.5029L26.9813 22.4708C26.9631 22.1406 27.2069 21.8507 27.5394 21.8154C27.8719 21.7801 28.1711 22.0124 28.2227 22.339L28.2269 22.3709L28.2366 22.4678C28.2578 22.6952 28.2697 22.9297 28.2697 23.1613V26.0237C28.2697 26.2516 28.1457 26.4613 27.9462 26.5712C27.7466 26.6811 27.5031 26.6737 27.3105 26.5519C27.2178 26.4932 27.1071 26.4587 26.9854 26.4587H25.1398C24.8 26.4587 24.5247 26.7339 24.5247 27.0737V28.4644C24.5247 28.8095 24.2449 29.0894 23.8997 29.0894H8.06036C7.71519 29.0893 7.43536 28.8095 7.43536 28.4644V27.0737ZM13.6808 15.8232C13.6807 15.8231 13.6807 15.8229 13.6806 15.8228C13.6803 15.8225 13.6799 15.8222 13.6796 15.8219C13.68 15.8223 13.6804 15.8228 13.6808 15.8232ZM13.6744 15.8174C13.6707 15.8141 13.6672 15.8108 13.6655 15.8094C13.6615 15.8059 13.6583 15.8032 13.6578 15.8028C13.6567 15.8019 13.6559 15.8013 13.6556 15.801C13.6556 15.801 13.6555 15.8009 13.6554 15.8008C13.6619 15.8062 13.6682 15.8118 13.6744 15.8174Z" fill="#EDE8EB"/>
<path d="M23.604 26.2327V23.2031C23.604 22.8579 23.8838 22.5781 24.229 22.5781C24.5742 22.5781 24.854 22.8579 24.854 23.2031V26.2327C24.854 26.5779 24.5742 26.8577 24.229 26.8577C23.8838 26.8577 23.604 26.5779 23.604 26.2327Z" fill="#EDE8EB"/>
<path d="M15.312 8.31326C15.4395 8.00819 15.7853 7.85357 16.1 7.96676C16.4248 8.08361 16.5933 8.44159 16.4765 8.76638L16.1578 9.65243H16.5068C16.8519 9.65243 17.1318 9.93226 17.1318 10.2774C17.1318 10.6226 16.852 10.9024 16.5068 10.9024H15.6042C15.0082 10.9024 14.5924 10.3111 14.7943 9.75015H14.7942L15.3003 8.34329L15.312 8.31326Z" fill="#EDE8EB"/>
<path d="M7.10242 26.229V23.2031C7.10242 22.8579 7.38224 22.5781 7.72742 22.5781C8.0726 22.5781 8.35242 22.8579 8.35242 23.2031V26.229C8.35241 26.5742 8.07259 26.854 7.72742 26.854C7.38224 26.854 7.10242 26.5742 7.10242 26.229Z" fill="#EDE8EB"/>
<path d="M20.5485 7.31998H17.1666C15.8699 7.31997 14.6565 6.68388 13.9176 5.62009C13.3103 6.49534 12.3805 7.08174 11.3459 7.26102V8.94937C11.346 11.4898 13.4061 13.55 15.9472 13.55C18.4883 13.55 20.5484 11.4898 20.5485 8.94937V7.31998ZM21.7985 8.94937C21.7984 12.1802 19.1786 14.8 15.9472 14.8C12.7158 14.8 10.096 12.1802 10.0959 8.94937V6.80496C10.0959 6.76196 10.0967 6.71927 10.0973 6.68314L10.0986 6.6517C10.1201 6.32911 10.3859 6.07382 10.7126 6.06882C11.6074 6.05511 12.4383 5.59883 12.9302 4.84903L12.9304 4.84879L13.3848 4.15689C13.4991 3.98278 13.6927 3.87711 13.901 3.87503C14.1093 3.87297 14.3049 3.97479 14.4227 4.14658L14.9351 4.89389C15.4399 5.62985 16.2748 6.06997 17.1666 6.06998H21.1722L21.204 6.07077C21.5304 6.08713 21.7915 6.35402 21.7971 6.68436C21.7977 6.72022 21.7985 6.76187 21.7985 6.80496V8.94937Z" fill="#EDE8EB"/>
<path d="M18.0193 13.0621C18.1409 13.0078 18.2769 12.9937 18.4074 13.0222L18.4618 13.034L18.4852 13.0397C18.7254 13.1018 18.907 13.3009 18.9458 13.5475L19.3621 16.1905C19.3672 16.2227 19.3697 16.2553 19.3697 16.2878V16.2884C19.3697 16.478 19.2837 16.6572 19.1359 16.7759L16.3915 18.9784C16.163 19.1618 15.8377 19.1618 15.6092 18.9784L12.8654 16.7765C12.8476 16.7622 12.8306 16.747 12.8145 16.7309L12.8114 16.7278C12.6719 16.5882 12.6065 16.3909 12.635 16.1956L13.02 13.5594L13.024 13.5354C13.0695 13.2899 13.2576 13.094 13.5029 13.0395L13.5141 13.037L13.5402 13.0318C13.6707 13.0086 13.8055 13.0275 13.925 13.086C14.5344 13.385 15.2204 13.5534 15.9472 13.5535C16.6846 13.5535 17.3793 13.3806 17.9952 13.0735L18.0193 13.0621ZM17.8294 14.4936C17.2382 14.6945 16.6051 14.8035 15.9472 14.8035C15.3182 14.8035 14.7117 14.7037 14.143 14.5194L13.9235 16.0229L16.0003 17.6895L18.071 16.0277L17.8294 14.4936Z" fill="#EDE8EB"/>
<path d="M16.0444 0C19.6015 1.18557e-05 22.485 2.88351 22.485 6.44055V6.69672C22.485 7.04188 22.2051 7.32171 21.86 7.32172H17.1668C15.8703 7.32172 14.6567 6.68631 13.9178 5.62213C13.18 6.68486 11.967 7.32172 10.6689 7.32172H9.97241C9.62724 7.32172 9.34743 7.04188 9.34741 6.69672V6.44055C9.34742 2.88357 12.2309 5.66955e-06 15.788 0H16.0444ZM15.788 1.25C13.0453 1.25001 10.7996 3.37721 10.6104 6.07172H10.6689C11.5803 6.07172 12.4305 5.61277 12.9307 4.85083L13.3848 4.15887L13.3958 4.14276C13.5113 3.97821 13.6993 3.87886 13.9011 3.87683C14.1094 3.87474 14.3051 3.97661 14.4229 4.14844L14.9354 4.896C15.4398 5.63186 16.2746 6.07172 17.1668 6.07172H21.222C21.0328 3.37716 18.7871 1.25001 16.0444 1.25H15.788Z" fill="#EDE8EB"/>
<path d="M29.8043 27.8438C30.1495 27.8438 30.4293 28.1236 30.4293 28.4688V31.3751C30.4293 31.7202 30.1495 32.0001 29.8043 32.0001H2.19568C1.8505 32.0001 1.57068 31.7202 1.57068 31.3751V28.4688C1.57068 28.1236 1.8505 27.8438 2.19568 27.8438H29.8043ZM2.82068 30.7501H29.1793V29.0938H2.82068V30.7501Z" fill="#EDE8EB"/>
<path d="M15.3754 28.4654V25.4688C15.3754 25.1236 15.6552 24.8438 16.0004 24.8438C16.3455 24.8438 16.6254 25.1236 16.6254 25.4688V28.4654C16.6254 28.8106 16.3455 29.0904 16.0004 29.0904C15.6552 29.0904 15.3754 28.8106 15.3754 28.4654Z" fill="#EDE8EB"/>
<path d="M16.6479 23.296C16.6479 22.9384 16.358 22.6484 16.0004 22.6484C15.6428 22.6484 15.3529 22.9384 15.3529 23.296V24.1978C15.3529 24.5554 15.6428 24.8453 16.0004 24.8453C16.358 24.8453 16.6479 24.5554 16.6479 24.1978V23.296ZM17.8979 24.1978C17.8979 25.2457 17.0483 26.0953 16.0004 26.0953C14.9525 26.0953 14.1029 25.2458 14.1029 24.1978V23.296C14.1029 22.2481 14.9524 21.3984 16.0004 21.3984C17.0483 21.3984 17.8979 22.248 17.8979 23.296V24.1978Z" fill="#EDE8EB"/>
<path d="M13.0853 15.6795C13.2791 15.6251 13.4878 15.6674 13.6454 15.7939L16.3917 17.9984C16.5356 18.1139 16.6211 18.2871 16.6254 18.4715C16.6296 18.6559 16.5521 18.8328 16.4137 18.9548L13.4666 21.5516C13.3204 21.6803 13.1226 21.7336 12.9316 21.6956C12.7405 21.6577 12.5781 21.5328 12.4923 21.358L10.4778 17.2536C10.3976 17.09 10.3927 16.8995 10.4645 16.732C10.5363 16.5646 10.6776 16.4368 10.8514 16.3821L13.0665 15.6851L13.0853 15.6795ZM11.9206 17.356L13.254 20.0728L15.0298 18.508L13.1233 16.9776L11.9206 17.356Z" fill="#EDE8EB"/>
<path d="M18.3537 15.8017C18.5158 15.6715 18.7321 15.6305 18.9306 15.6923L21.0635 16.3559C21.2373 16.4099 21.3789 16.5371 21.4513 16.7041C21.5236 16.8711 21.5196 17.0614 21.4402 17.2252L19.4598 21.3109C19.3746 21.4865 19.2123 21.6123 19.021 21.6509C18.8297 21.6895 18.6313 21.6366 18.4847 21.5077L15.5878 18.9611C15.4491 18.8392 15.3715 18.6623 15.3756 18.4777C15.3798 18.2931 15.4653 18.1198 15.6093 18.0043L18.3537 15.8017ZM16.9718 18.5134L18.6932 20.0266L19.9984 17.3336L18.8767 16.9846L16.9718 18.5134Z" fill="#EDE8EB"/>
<path d="M27.2073 19.8984C27.2073 20.2436 26.9275 20.5234 26.5823 20.5234C26.2371 20.5234 25.9573 20.2436 25.9573 19.8984C25.9573 19.5533 26.2371 19.2734 26.5823 19.2734C26.9275 19.2734 27.2073 19.5533 27.2073 19.8984Z" fill="#EDE8EB"/>
<path d="M7.4353 27.0757C7.4353 26.7362 7.16006 26.4609 6.82056 26.4609H4.97449C4.63498 26.4609 4.35974 26.7362 4.35974 27.0757V27.8416H7.4353V27.0757ZM8.6853 28.4666C8.6853 28.8117 8.40548 29.0916 8.0603 29.0916H3.73474C3.38956 29.0916 3.10974 28.8117 3.10974 28.4666V27.0757C3.10974 26.0458 3.94463 25.2109 4.97449 25.2109H6.82056C7.85042 25.2109 8.6853 26.0458 8.6853 27.0757V28.4666Z" fill="#EDE8EB"/>
<path d="M27.5995 27.0441C27.5831 26.7193 27.3145 26.4609 26.9856 26.4609H25.1395C24.8 26.4609 24.5248 26.7362 24.5248 27.0757V27.8416H27.6003L27.6003 27.0757L27.5995 27.0441ZM28.8503 28.4666C28.8503 28.8118 28.5704 29.0916 28.2253 29.0916H23.8998C23.5546 29.0916 23.2748 28.8117 23.2748 28.4666V27.0757C23.2748 26.0458 24.1097 25.2109 25.1395 25.2109H26.9856C28.0155 25.2109 28.8503 26.0459 28.8503 27.0757L28.8503 28.4666Z" fill="#EDE8EB"/>
</svg>
